<svg width="23" height="23" viewBox="0 0 23 23" fill="none" xmlns="http://www.w3.org/2000/svg">
<path d="M3.45 21.85C2.81487 22.4851 1.78513 22.4851 1.15 21.85C0.514873 21.2149 0.514873 20.1851 1.15 19.55L9.2 11.5L1.15 3.45C0.514872 2.81487 0.514872 1.78513 1.15 1.15C1.78513 0.514872 2.81487 0.514873 3.45 1.15L11.5 9.2L19.55 1.15C20.1851 0.514872 21.2149 0.514873 21.85 1.15C22.4851 1.78513 22.4851 2.81487 21.85 3.45L13.8 11.5L21.85 19.55C22.4851 20.1851 22.4851 21.2149 21.85 21.85C21.2149 22.4851 20.1851 22.4851 19.55 21.85L11.5 13.8L3.45 21.85Z" fill="#1E1E1E"/>
</svg>
