<svg width="25" height="25" viewBox="0 0 25 25" fill="none" xmlns="http://www.w3.org/2000/svg">
<path d="M12.4934 20.255C12.9455 20.255 13.3253 20.1035 13.6327 19.8004C13.9399 19.4976 14.0935 19.1202 14.0935 18.668C14.0935 18.2159 13.9421 17.835 13.6393 17.5253C13.3363 17.2157 12.9587 17.061 12.5066 17.061C12.0545 17.061 11.6747 17.2141 11.3673 17.5204C11.0601 17.8267 10.9065 18.2059 10.9065 18.658C10.9065 19.1101 11.0579 19.4893 11.3607 19.7956C11.6637 20.1018 12.0413 20.255 12.4934 20.255ZM10.897 13.3752C10.897 14.2725 11.6244 15 12.5218 15V15C13.4192 15 14.1467 14.2725 14.1467 13.3752V7.01309C14.1467 6.11572 13.4192 5.38825 12.5218 5.38825V5.38825V5.38825C11.6244 5.38825 10.897 6.11572 10.897 7.01309V13.3752ZM12.5 25C10.7704 25 9.14418 24.6731 7.62145 24.0192C6.09854 23.3653 4.77451 22.4758 3.64936 21.3506C2.52421 20.2255 1.6347 18.9015 0.98082 17.3785C0.32694 15.8558 0 14.2296 0 12.5C0 10.7656 0.327514 9.13594 0.982543 7.61112C1.63757 6.08629 2.529 4.75968 3.65683 3.63127C4.78466 2.50306 6.10859 1.61584 7.62863 0.969621C9.14887 0.323206 10.7727 0 12.5 0C14.2342 0 15.8639 0.32311 17.3889 0.969334C18.9137 1.61556 20.2403 2.50287 21.3687 3.63127C22.4971 4.75968 23.3844 6.08658 24.0307 7.61198C24.6769 9.13738 25 10.7675 25 12.5023C25 14.2373 24.6768 15.8625 24.0304 17.378C23.3842 18.8936 22.4969 20.2153 21.3687 21.3432C20.2403 22.471 18.9137 23.3624 17.3889 24.0175C15.8641 24.6725 14.2344 25 12.5 25Z" fill="white"/>
</svg>
