<svg width="29" height="25" viewBox="0 0 29 25" fill="none" xmlns="http://www.w3.org/2000/svg">
<path d="M14.4407 24.1931C14.2543 24.351 13.981 24.351 13.7945 24.1931L12.0706 22.7333C9.69412 20.7111 7.72941 18.9667 6.17647 17.5C4.62353 16.0333 3.38824 14.7167 2.47059 13.55C1.55294 12.3833 0.911765 11.3111 0.547059 10.3333C0.182353 9.35556 0 8.35556 0 7.33333C0 5.24444 0.741176 3.5 2.22353 2.1C3.70588 0.7 5.55294 0 7.76471 0C8.98824 0 10.1529 0.244444 11.2588 0.733333C12.3304 1.20706 13.2584 1.86858 14.0428 2.71789C14.0831 2.76151 14.1522 2.76151 14.1925 2.71789C14.9769 1.86858 15.9049 1.20706 16.9765 0.733333C18.0824 0.244444 19.2471 0 20.4706 0C22.6824 0 24.5294 0.7 26.0118 2.1C27.4941 3.5 28.2353 5.24444 28.2353 7.33333C28.2353 8.35556 28.0529 9.35556 27.6882 10.3333C27.3235 11.3111 26.6824 12.3833 25.7647 13.55C24.8471 14.7167 23.6118 16.0333 22.0588 17.5C20.5059 18.9667 18.5412 20.7111 16.1647 22.7333L14.4407 24.1931Z" fill="#5A5A5A"/>
</svg>
