<svg width="19" height="18" viewBox="0 0 19 18" fill="none" xmlns="http://www.w3.org/2000/svg">
<path d="M16.8059 18L10.4589 11.7C9.95517 12.1 9.37587 12.4167 8.72102 12.65C8.06617 12.8833 7.36935 13 6.63054 13C4.80032 13 3.25134 12.3708 1.98362 11.1125C0.715893 9.85417 0.0820312 8.31667 0.0820312 6.5C0.0820312 4.68333 0.715893 3.14583 1.98362 1.8875C3.25134 0.629167 4.80032 0 6.63054 0C8.46076 0 10.0097 0.629167 11.2775 1.8875C12.5452 3.14583 13.179 4.68333 13.179 6.5C13.179 7.23333 13.0615 7.925 12.8264 8.575C12.5914 9.225 12.2723 9.8 11.8693 10.3L18.2164 16.6L16.8059 18ZM6.63054 11C7.88987 11 8.9603 10.5625 9.84183 9.6875C10.7234 8.8125 11.1641 7.75 11.1641 6.5C11.1641 5.25 10.7234 4.1875 9.84183 3.3125C8.9603 2.4375 7.88987 2 6.63054 2C5.37121 2 4.30078 2.4375 3.41925 3.3125C2.53772 4.1875 2.09696 5.25 2.09696 6.5C2.09696 7.75 2.53772 8.8125 3.41925 9.6875C4.30078 10.5625 5.37121 11 6.63054 11Z" fill="#1E1E1E"/>
</svg>
