<svg width="204" height="109" viewBox="0 0 204 109" fill="none" xmlns="http://www.w3.org/2000/svg">
<mask id="path-1-outside-1_75_449" maskUnits="userSpaceOnUse" x="0" y="0" width="204" height="109" fill="black">
<rect fill="white" width="204" height="109"/>
<path d="M4.02273 3.72727H10.0909L16.5 19.3636H16.7727L23.1818 3.72727H29.25V27H24.4773V11.8523H24.2841L18.2614 26.8864H15.0114L8.98864 11.7955H8.79545V27H4.02273V3.72727ZM54.6903 15.3636C54.6903 17.9015 54.2093 20.0606 53.2472 21.8409C52.2926 23.6212 50.9896 24.9811 49.3381 25.9205C47.6941 26.8523 45.8456 27.3182 43.7926 27.3182C41.7244 27.3182 39.8684 26.8485 38.2244 25.9091C36.5805 24.9697 35.2813 23.6098 34.3267 21.8295C33.3722 20.0492 32.8949 17.8939 32.8949 15.3636C32.8949 12.8258 33.3722 10.6667 34.3267 8.88636C35.2813 7.10606 36.5805 5.75 38.2244 4.81818C39.8684 3.87879 41.7244 3.40909 43.7926 3.40909C45.8456 3.40909 47.6941 3.87879 49.3381 4.81818C50.9896 5.75 52.2926 7.10606 53.2472 8.88636C54.2093 10.6667 54.6903 12.8258 54.6903 15.3636ZM49.7017 15.3636C49.7017 13.7197 49.4555 12.3333 48.9631 11.2045C48.4782 10.0758 47.7926 9.2197 46.9062 8.63636C46.0199 8.05303 44.982 7.76136 43.7926 7.76136C42.6032 7.76136 41.5653 8.05303 40.679 8.63636C39.7926 9.2197 39.1032 10.0758 38.6108 11.2045C38.1259 12.3333 37.8835 13.7197 37.8835 15.3636C37.8835 17.0076 38.1259 18.3939 38.6108 19.5227C39.1032 20.6515 39.7926 21.5076 40.679 22.0909C41.5653 22.6742 42.6032 22.9659 43.7926 22.9659C44.982 22.9659 46.0199 22.6742 46.9062 22.0909C47.7926 21.5076 48.4782 20.6515 48.9631 19.5227C49.4555 18.3939 49.7017 17.0076 49.7017 15.3636ZM70.9602 10.4205C70.8693 9.50379 70.4792 8.79167 69.7898 8.28409C69.1004 7.77651 68.1648 7.52273 66.983 7.52273C66.1799 7.52273 65.5019 7.63636 64.9489 7.86364C64.3958 8.08333 63.9716 8.39015 63.6761 8.78409C63.3883 9.17803 63.2443 9.625 63.2443 10.125C63.2292 10.5417 63.3163 10.9053 63.5057 11.2159C63.7027 11.5265 63.9716 11.7955 64.3125 12.0227C64.6534 12.2424 65.0473 12.4356 65.4943 12.6023C65.9413 12.7614 66.4186 12.8977 66.9261 13.0114L69.017 13.5114C70.0322 13.7386 70.964 14.0417 71.8125 14.4205C72.661 14.7992 73.3958 15.2652 74.017 15.8182C74.6383 16.3712 75.1193 17.0227 75.4602 17.7727C75.8087 18.5227 75.9867 19.3826 75.9943 20.3523C75.9867 21.7765 75.6231 23.0114 74.9034 24.0568C74.1913 25.0947 73.161 25.9015 71.8125 26.4773C70.4716 27.0455 68.8542 27.3295 66.9602 27.3295C65.0814 27.3295 63.4451 27.0417 62.0511 26.4659C60.6648 25.8902 59.5814 25.0379 58.8011 23.9091C58.0284 22.7727 57.6231 21.3674 57.5852 19.6932H62.3466C62.3996 20.4735 62.6231 21.125 63.017 21.6477C63.4186 22.1629 63.9527 22.553 64.6193 22.8182C65.2936 23.0758 66.0549 23.2045 66.9034 23.2045C67.7367 23.2045 68.4602 23.0833 69.0739 22.8409C69.6951 22.5985 70.1761 22.2614 70.517 21.8295C70.858 21.3977 71.0284 20.9015 71.0284 20.3409C71.0284 19.8182 70.8731 19.3788 70.5625 19.0227C70.2595 18.6667 69.8125 18.3636 69.2216 18.1136C68.6383 17.8636 67.9223 17.6364 67.0739 17.4318L64.5398 16.7955C62.5777 16.3182 61.0284 15.572 59.892 14.5568C58.7557 13.5417 58.1913 12.1742 58.1989 10.4545C58.1913 9.04545 58.5663 7.81439 59.3239 6.76136C60.089 5.70833 61.1383 4.88636 62.4716 4.29545C63.8049 3.70454 65.3201 3.40909 67.017 3.40909C68.7443 3.40909 70.2519 3.70454 71.5398 4.29545C72.8352 4.88636 73.8428 5.70833 74.5625 6.76136C75.2822 7.81439 75.6534 9.03409 75.6761 10.4205H70.9602ZM78.4176 7.78409V3.72727H97.5312V7.78409H90.4062V27H85.5426V7.78409H78.4176ZM4.02273 66V42.7273H13.2045C14.9697 42.7273 16.4735 43.0644 17.7159 43.7386C18.9583 44.4053 19.9053 45.3333 20.5568 46.5227C21.2159 47.7045 21.5455 49.0682 21.5455 50.6136C21.5455 52.1591 21.2121 53.5227 20.5455 54.7045C19.8788 55.8864 18.9129 56.8068 17.6477 57.4659C16.3902 58.125 14.8674 58.4545 13.0795 58.4545H7.22727V54.5114H12.2841C13.2311 54.5114 14.0114 54.3485 14.625 54.0227C15.2462 53.6894 15.7083 53.2311 16.0114 52.6477C16.322 52.0568 16.4773 51.3788 16.4773 50.6136C16.4773 49.8409 16.322 49.1667 16.0114 48.5909C15.7083 48.0076 15.2462 47.5568 14.625 47.2386C14.0038 46.9129 13.2159 46.75 12.2614 46.75H8.94318V66H4.02273ZM39.1165 42.7273H44.0369V57.8409C44.0369 59.5379 43.6316 61.0227 42.821 62.2955C42.018 63.5682 40.893 64.5606 39.446 65.2727C37.9991 65.9773 36.3134 66.3295 34.3892 66.3295C32.4574 66.3295 30.768 65.9773 29.321 65.2727C27.8741 64.5606 26.7491 63.5682 25.946 62.2955C25.143 61.0227 24.7415 59.5379 24.7415 57.8409V42.7273H29.6619V57.4205C29.6619 58.3068 29.8551 59.0947 30.2415 59.7841C30.6354 60.4735 31.1884 61.0152 31.9006 61.4091C32.6127 61.803 33.4422 62 34.3892 62C35.3438 62 36.1733 61.803 36.8778 61.4091C37.59 61.0152 38.1392 60.4735 38.5256 59.7841C38.9195 59.0947 39.1165 58.3068 39.1165 57.4205V42.7273ZM48.0852 66V42.7273H57.267C59.0246 42.7273 60.5246 43.0417 61.767 43.6705C63.017 44.2917 63.9678 45.1742 64.6193 46.3182C65.2784 47.4545 65.608 48.7917 65.608 50.3295C65.608 51.875 65.2746 53.2045 64.608 54.3182C63.9413 55.4242 62.9754 56.2727 61.7102 56.8636C60.4527 57.4545 58.9299 57.75 57.142 57.75H50.9943V53.7955H56.3466C57.286 53.7955 58.0663 53.6667 58.6875 53.4091C59.3087 53.1515 59.7708 52.7652 60.0739 52.25C60.3845 51.7348 60.5398 51.0947 60.5398 50.3295C60.5398 49.5568 60.3845 48.9053 60.0739 48.375C59.7708 47.8447 59.3049 47.4432 58.6761 47.1705C58.0549 46.8902 57.2708 46.75 56.3239 46.75H53.0057V66H48.0852ZM60.6534 55.4091L66.4375 66H61.0057L55.3466 55.4091H60.6534ZM89.6193 50.875H84.642C84.5511 50.2311 84.3655 49.6591 84.0852 49.1591C83.8049 48.6515 83.4451 48.2197 83.0057 47.8636C82.5663 47.5076 82.0587 47.2348 81.483 47.0455C80.9148 46.8561 80.2973 46.7614 79.6307 46.7614C78.4261 46.7614 77.3769 47.0606 76.483 47.6591C75.589 48.25 74.8958 49.1136 74.4034 50.25C73.911 51.3788 73.6648 52.75 73.6648 54.3636C73.6648 56.0227 73.911 57.4167 74.4034 58.5455C74.9034 59.6742 75.6004 60.5265 76.4943 61.1023C77.3883 61.678 78.4223 61.9659 79.5966 61.9659C80.2557 61.9659 80.8655 61.8788 81.4261 61.7045C81.9943 61.5303 82.4981 61.2765 82.9375 60.9432C83.3769 60.6023 83.7405 60.1894 84.0284 59.7045C84.3239 59.2197 84.5284 58.6667 84.642 58.0455L89.6193 58.0682C89.4905 59.1364 89.1686 60.1667 88.6534 61.1591C88.1458 62.1439 87.4602 63.0265 86.5966 63.8068C85.7405 64.5795 84.7178 65.1932 83.5284 65.6477C82.3466 66.0947 81.0095 66.3182 79.517 66.3182C77.4413 66.3182 75.5852 65.8485 73.9489 64.9091C72.3201 63.9697 71.0322 62.6098 70.0852 60.8295C69.1458 59.0492 68.6761 56.8939 68.6761 54.3636C68.6761 51.8258 69.1534 49.6667 70.108 47.8864C71.0625 46.1061 72.358 44.75 73.9943 43.8182C75.6307 42.8788 77.4716 42.4091 79.517 42.4091C80.8655 42.4091 82.1155 42.5985 83.267 42.9773C84.4261 43.3561 85.4527 43.9091 86.3466 44.6364C87.2405 45.3561 87.9678 46.2386 88.5284 47.2841C89.0966 48.3295 89.4602 49.5265 89.6193 50.875ZM93.1477 66V42.7273H98.0682V52.3295H108.057V42.7273H112.966V66H108.057V56.3864H98.0682V66H93.1477ZM121.034 66H115.761L123.795 42.7273H130.136L138.159 66H132.886L127.057 48.0455H126.875L121.034 66ZM120.705 56.8523H133.159V60.6932H120.705V56.8523ZM153.054 49.4205C152.963 48.5038 152.573 47.7917 151.884 47.2841C151.194 46.7765 150.259 46.5227 149.077 46.5227C148.274 46.5227 147.596 46.6364 147.043 46.8636C146.49 47.0833 146.065 47.3902 145.77 47.7841C145.482 48.178 145.338 48.625 145.338 49.125C145.323 49.5417 145.41 49.9053 145.599 50.2159C145.796 50.5265 146.065 50.7955 146.406 51.0227C146.747 51.2424 147.141 51.4356 147.588 51.6023C148.035 51.7614 148.512 51.8977 149.02 52.0114L151.111 52.5114C152.126 52.7386 153.058 53.0417 153.906 53.4205C154.755 53.7992 155.49 54.2652 156.111 54.8182C156.732 55.3712 157.213 56.0227 157.554 56.7727C157.902 57.5227 158.08 58.3826 158.088 59.3523C158.08 60.7765 157.717 62.0114 156.997 63.0568C156.285 64.0947 155.255 64.9015 153.906 65.4773C152.565 66.0455 150.948 66.3295 149.054 66.3295C147.175 66.3295 145.539 66.0417 144.145 65.4659C142.759 64.8902 141.675 64.0379 140.895 62.9091C140.122 61.7727 139.717 60.3674 139.679 58.6932H144.44C144.493 59.4735 144.717 60.125 145.111 60.6477C145.512 61.1629 146.046 61.553 146.713 61.8182C147.387 62.0758 148.149 62.2045 148.997 62.2045C149.83 62.2045 150.554 62.0833 151.168 61.8409C151.789 61.5985 152.27 61.2614 152.611 60.8295C152.952 60.3977 153.122 59.9015 153.122 59.3409C153.122 58.8182 152.967 58.3788 152.656 58.0227C152.353 57.6667 151.906 57.3636 151.315 57.1136C150.732 56.8636 150.016 56.6364 149.168 56.4318L146.634 55.7955C144.671 55.3182 143.122 54.572 141.986 53.5568C140.849 52.5417 140.285 51.1742 140.293 49.4545C140.285 48.0455 140.66 46.8144 141.418 45.7614C142.183 44.7083 143.232 43.8864 144.565 43.2955C145.899 42.7045 147.414 42.4091 149.111 42.4091C150.838 42.4091 152.346 42.7045 153.634 43.2955C154.929 43.8864 155.937 44.7083 156.656 45.7614C157.376 46.8144 157.747 48.0341 157.77 49.4205H153.054ZM161.398 66V42.7273H177.08V46.7841H166.318V52.3295H176.273V56.3864H166.318V61.9432H177.125V66H161.398ZM189.241 66H180.991V42.7273H189.31C191.651 42.7273 193.666 43.1932 195.355 44.125C197.045 45.0492 198.344 46.3788 199.253 48.1136C200.17 49.8485 200.628 51.9242 200.628 54.3409C200.628 56.7652 200.17 58.8485 199.253 60.5909C198.344 62.3333 197.037 63.6705 195.332 64.6023C193.635 65.5341 191.605 66 189.241 66ZM185.912 61.7841H189.037C190.491 61.7841 191.715 61.5265 192.707 61.0114C193.707 60.4886 194.457 59.6818 194.957 58.5909C195.465 57.4924 195.719 56.0758 195.719 54.3409C195.719 52.6212 195.465 51.2159 194.957 50.125C194.457 49.0341 193.711 48.2311 192.719 47.7159C191.726 47.2008 190.503 46.9432 189.048 46.9432H185.912V61.7841ZM3.13636 85.7841V81.7273H22.25V85.7841H15.125V105H10.2614V85.7841H3.13636ZM35.2131 91.4432V95.2841H24.5994V91.4432H35.2131ZM52.054 88.4205C51.9631 87.5038 51.5729 86.7917 50.8835 86.2841C50.1941 85.7765 49.2585 85.5227 48.0767 85.5227C47.2737 85.5227 46.5956 85.6364 46.0426 85.8636C45.4896 86.0833 45.0653 86.3902 44.7699 86.7841C44.482 87.178 44.3381 87.625 44.3381 88.125C44.3229 88.5417 44.41 88.9053 44.5994 89.2159C44.7964 89.5265 45.0653 89.7955 45.4062 90.0227C45.7472 90.2424 46.1411 90.4356 46.5881 90.6023C47.035 90.7614 47.5123 90.8977 48.0199 91.0114L50.1108 91.5114C51.1259 91.7386 52.0578 92.0417 52.9062 92.4205C53.7547 92.7992 54.4896 93.2652 55.1108 93.8182C55.732 94.3712 56.2131 95.0227 56.554 95.7727C56.9025 96.5227 57.0805 97.3826 57.0881 98.3523C57.0805 99.7765 56.7169 101.011 55.9972 102.057C55.285 103.095 54.2547 103.902 52.9062 104.477C51.5653 105.045 49.9479 105.33 48.054 105.33C46.1752 105.33 44.5388 105.042 43.1449 104.466C41.7585 103.89 40.6752 103.038 39.8949 101.909C39.1222 100.773 38.7169 99.3674 38.679 97.6932H43.4403C43.4934 98.4735 43.7169 99.125 44.1108 99.6477C44.5123 100.163 45.0464 100.553 45.7131 100.818C46.3873 101.076 47.1487 101.205 47.9972 101.205C48.8305 101.205 49.554 101.083 50.1676 100.841C50.7888 100.598 51.2699 100.261 51.6108 99.8295C51.9517 99.3977 52.1222 98.9015 52.1222 98.3409C52.1222 97.8182 51.9669 97.3788 51.6562 97.0227C51.3532 96.6667 50.9063 96.3636 50.3153 96.1136C49.732 95.8636 49.0161 95.6364 48.1676 95.4318L45.6335 94.7955C43.6714 94.3182 42.1222 93.572 40.9858 92.5568C39.8494 91.5417 39.285 90.1742 39.2926 88.4545C39.285 87.0455 39.66 85.8144 40.4176 84.7614C41.1828 83.7083 42.232 82.8864 43.5653 82.2955C44.8987 81.7045 46.4138 81.4091 48.1108 81.4091C49.8381 81.4091 51.3456 81.7045 52.6335 82.2955C53.929 82.8864 54.9366 83.7083 55.6562 84.7614C56.3759 85.8144 56.7472 87.0341 56.7699 88.4205H52.054ZM60.3977 105V81.7273H65.3182V91.3295H75.3068V81.7273H80.2159V105H75.3068V95.3864H65.3182V105H60.3977ZM89.1932 81.7273V105H84.2727V81.7273H89.1932ZM93.2415 105V81.7273H102.423C104.181 81.7273 105.681 82.0417 106.923 82.6705C108.173 83.2917 109.124 84.1742 109.776 85.3182C110.435 86.4545 110.764 87.7917 110.764 89.3295C110.764 90.875 110.431 92.2045 109.764 93.3182C109.098 94.4242 108.132 95.2727 106.866 95.8636C105.609 96.4545 104.086 96.75 102.298 96.75H96.1506V92.7955H101.503C102.442 92.7955 103.223 92.6667 103.844 92.4091C104.465 92.1515 104.927 91.7652 105.23 91.25C105.541 90.7348 105.696 90.0947 105.696 89.3295C105.696 88.5568 105.541 87.9053 105.23 87.375C104.927 86.8447 104.461 86.4432 103.832 86.1705C103.211 85.8902 102.427 85.75 101.48 85.75H98.1619V105H93.2415ZM105.81 94.4091L111.594 105H106.162L100.503 94.4091H105.81ZM113.355 85.7841V81.7273H132.469V85.7841H125.344V105H120.48V85.7841H113.355Z"/>
</mask>
<path d="M4.02273 3.72727H10.0909L16.5 19.3636H16.7727L23.1818 3.72727H29.25V27H24.4773V11.8523H24.2841L18.2614 26.8864H15.0114L8.98864 11.7955H8.79545V27H4.02273V3.72727ZM54.6903 15.3636C54.6903 17.9015 54.2093 20.0606 53.2472 21.8409C52.2926 23.6212 50.9896 24.9811 49.3381 25.9205C47.6941 26.8523 45.8456 27.3182 43.7926 27.3182C41.7244 27.3182 39.8684 26.8485 38.2244 25.9091C36.5805 24.9697 35.2813 23.6098 34.3267 21.8295C33.3722 20.0492 32.8949 17.8939 32.8949 15.3636C32.8949 12.8258 33.3722 10.6667 34.3267 8.88636C35.2813 7.10606 36.5805 5.75 38.2244 4.81818C39.8684 3.87879 41.7244 3.40909 43.7926 3.40909C45.8456 3.40909 47.6941 3.87879 49.3381 4.81818C50.9896 5.75 52.2926 7.10606 53.2472 8.88636C54.2093 10.6667 54.6903 12.8258 54.6903 15.3636ZM49.7017 15.3636C49.7017 13.7197 49.4555 12.3333 48.9631 11.2045C48.4782 10.0758 47.7926 9.2197 46.9062 8.63636C46.0199 8.05303 44.982 7.76136 43.7926 7.76136C42.6032 7.76136 41.5653 8.05303 40.679 8.63636C39.7926 9.2197 39.1032 10.0758 38.6108 11.2045C38.1259 12.3333 37.8835 13.7197 37.8835 15.3636C37.8835 17.0076 38.1259 18.3939 38.6108 19.5227C39.1032 20.6515 39.7926 21.5076 40.679 22.0909C41.5653 22.6742 42.6032 22.9659 43.7926 22.9659C44.982 22.9659 46.0199 22.6742 46.9062 22.0909C47.7926 21.5076 48.4782 20.6515 48.9631 19.5227C49.4555 18.3939 49.7017 17.0076 49.7017 15.3636ZM70.9602 10.4205C70.8693 9.50379 70.4792 8.79167 69.7898 8.28409C69.1004 7.77651 68.1648 7.52273 66.983 7.52273C66.1799 7.52273 65.5019 7.63636 64.9489 7.86364C64.3958 8.08333 63.9716 8.39015 63.6761 8.78409C63.3883 9.17803 63.2443 9.625 63.2443 10.125C63.2292 10.5417 63.3163 10.9053 63.5057 11.2159C63.7027 11.5265 63.9716 11.7955 64.3125 12.0227C64.6534 12.2424 65.0473 12.4356 65.4943 12.6023C65.9413 12.7614 66.4186 12.8977 66.9261 13.0114L69.017 13.5114C70.0322 13.7386 70.964 14.0417 71.8125 14.4205C72.661 14.7992 73.3958 15.2652 74.017 15.8182C74.6383 16.3712 75.1193 17.0227 75.4602 17.7727C75.8087 18.5227 75.9867 19.3826 75.9943 20.3523C75.9867 21.7765 75.6231 23.0114 74.9034 24.0568C74.1913 25.0947 73.161 25.9015 71.8125 26.4773C70.4716 27.0455 68.8542 27.3295 66.9602 27.3295C65.0814 27.3295 63.4451 27.0417 62.0511 26.4659C60.6648 25.8902 59.5814 25.0379 58.8011 23.9091C58.0284 22.7727 57.6231 21.3674 57.5852 19.6932H62.3466C62.3996 20.4735 62.6231 21.125 63.017 21.6477C63.4186 22.1629 63.9527 22.553 64.6193 22.8182C65.2936 23.0758 66.0549 23.2045 66.9034 23.2045C67.7367 23.2045 68.4602 23.0833 69.0739 22.8409C69.6951 22.5985 70.1761 22.2614 70.517 21.8295C70.858 21.3977 71.0284 20.9015 71.0284 20.3409C71.0284 19.8182 70.8731 19.3788 70.5625 19.0227C70.2595 18.6667 69.8125 18.3636 69.2216 18.1136C68.6383 17.8636 67.9223 17.6364 67.0739 17.4318L64.5398 16.7955C62.5777 16.3182 61.0284 15.572 59.892 14.5568C58.7557 13.5417 58.1913 12.1742 58.1989 10.4545C58.1913 9.04545 58.5663 7.81439 59.3239 6.76136C60.089 5.70833 61.1383 4.88636 62.4716 4.29545C63.8049 3.70454 65.3201 3.40909 67.017 3.40909C68.7443 3.40909 70.2519 3.70454 71.5398 4.29545C72.8352 4.88636 73.8428 5.70833 74.5625 6.76136C75.2822 7.81439 75.6534 9.03409 75.6761 10.4205H70.9602ZM78.4176 7.78409V3.72727H97.5312V7.78409H90.4062V27H85.5426V7.78409H78.4176ZM4.02273 66V42.7273H13.2045C14.9697 42.7273 16.4735 43.0644 17.7159 43.7386C18.9583 44.4053 19.9053 45.3333 20.5568 46.5227C21.2159 47.7045 21.5455 49.0682 21.5455 50.6136C21.5455 52.1591 21.2121 53.5227 20.5455 54.7045C19.8788 55.8864 18.9129 56.8068 17.6477 57.4659C16.3902 58.125 14.8674 58.4545 13.0795 58.4545H7.22727V54.5114H12.2841C13.2311 54.5114 14.0114 54.3485 14.625 54.0227C15.2462 53.6894 15.7083 53.2311 16.0114 52.6477C16.322 52.0568 16.4773 51.3788 16.4773 50.6136C16.4773 49.8409 16.322 49.1667 16.0114 48.5909C15.7083 48.0076 15.2462 47.5568 14.625 47.2386C14.0038 46.9129 13.2159 46.75 12.2614 46.75H8.94318V66H4.02273ZM39.1165 42.7273H44.0369V57.8409C44.0369 59.5379 43.6316 61.0227 42.821 62.2955C42.018 63.5682 40.893 64.5606 39.446 65.2727C37.9991 65.9773 36.3134 66.3295 34.3892 66.3295C32.4574 66.3295 30.768 65.9773 29.321 65.2727C27.8741 64.5606 26.7491 63.5682 25.946 62.2955C25.143 61.0227 24.7415 59.5379 24.7415 57.8409V42.7273H29.6619V57.4205C29.6619 58.3068 29.8551 59.0947 30.2415 59.7841C30.6354 60.4735 31.1884 61.0152 31.9006 61.4091C32.6127 61.803 33.4422 62 34.3892 62C35.3438 62 36.1733 61.803 36.8778 61.4091C37.59 61.0152 38.1392 60.4735 38.5256 59.7841C38.9195 59.0947 39.1165 58.3068 39.1165 57.4205V42.7273ZM48.0852 66V42.7273H57.267C59.0246 42.7273 60.5246 43.0417 61.767 43.6705C63.017 44.2917 63.9678 45.1742 64.6193 46.3182C65.2784 47.4545 65.608 48.7917 65.608 50.3295C65.608 51.875 65.2746 53.2045 64.608 54.3182C63.9413 55.4242 62.9754 56.2727 61.7102 56.8636C60.4527 57.4545 58.9299 57.75 57.142 57.75H50.9943V53.7955H56.3466C57.286 53.7955 58.0663 53.6667 58.6875 53.4091C59.3087 53.1515 59.7708 52.7652 60.0739 52.25C60.3845 51.7348 60.5398 51.0947 60.5398 50.3295C60.5398 49.5568 60.3845 48.9053 60.0739 48.375C59.7708 47.8447 59.3049 47.4432 58.6761 47.1705C58.0549 46.8902 57.2708 46.75 56.3239 46.75H53.0057V66H48.0852ZM60.6534 55.4091L66.4375 66H61.0057L55.3466 55.4091H60.6534ZM89.6193 50.875H84.642C84.5511 50.2311 84.3655 49.6591 84.0852 49.1591C83.8049 48.6515 83.4451 48.2197 83.0057 47.8636C82.5663 47.5076 82.0587 47.2348 81.483 47.0455C80.9148 46.8561 80.2973 46.7614 79.6307 46.7614C78.4261 46.7614 77.3769 47.0606 76.483 47.6591C75.589 48.25 74.8958 49.1136 74.4034 50.25C73.911 51.3788 73.6648 52.75 73.6648 54.3636C73.6648 56.0227 73.911 57.4167 74.4034 58.5455C74.9034 59.6742 75.6004 60.5265 76.4943 61.1023C77.3883 61.678 78.4223 61.9659 79.5966 61.9659C80.2557 61.9659 80.8655 61.8788 81.4261 61.7045C81.9943 61.5303 82.4981 61.2765 82.9375 60.9432C83.3769 60.6023 83.7405 60.1894 84.0284 59.7045C84.3239 59.2197 84.5284 58.6667 84.642 58.0455L89.6193 58.0682C89.4905 59.1364 89.1686 60.1667 88.6534 61.1591C88.1458 62.1439 87.4602 63.0265 86.5966 63.8068C85.7405 64.5795 84.7178 65.1932 83.5284 65.6477C82.3466 66.0947 81.0095 66.3182 79.517 66.3182C77.4413 66.3182 75.5852 65.8485 73.9489 64.9091C72.3201 63.9697 71.0322 62.6098 70.0852 60.8295C69.1458 59.0492 68.6761 56.8939 68.6761 54.3636C68.6761 51.8258 69.1534 49.6667 70.108 47.8864C71.0625 46.1061 72.358 44.75 73.9943 43.8182C75.6307 42.8788 77.4716 42.4091 79.517 42.4091C80.8655 42.4091 82.1155 42.5985 83.267 42.9773C84.4261 43.3561 85.4527 43.9091 86.3466 44.6364C87.2405 45.3561 87.9678 46.2386 88.5284 47.2841C89.0966 48.3295 89.4602 49.5265 89.6193 50.875ZM93.1477 66V42.7273H98.0682V52.3295H108.057V42.7273H112.966V66H108.057V56.3864H98.0682V66H93.1477ZM121.034 66H115.761L123.795 42.7273H130.136L138.159 66H132.886L127.057 48.0455H126.875L121.034 66ZM120.705 56.8523H133.159V60.6932H120.705V56.8523ZM153.054 49.4205C152.963 48.5038 152.573 47.7917 151.884 47.2841C151.194 46.7765 150.259 46.5227 149.077 46.5227C148.274 46.5227 147.596 46.6364 147.043 46.8636C146.49 47.0833 146.065 47.3902 145.77 47.7841C145.482 48.178 145.338 48.625 145.338 49.125C145.323 49.5417 145.41 49.9053 145.599 50.2159C145.796 50.5265 146.065 50.7955 146.406 51.0227C146.747 51.2424 147.141 51.4356 147.588 51.6023C148.035 51.7614 148.512 51.8977 149.02 52.0114L151.111 52.5114C152.126 52.7386 153.058 53.0417 153.906 53.4205C154.755 53.7992 155.49 54.2652 156.111 54.8182C156.732 55.3712 157.213 56.0227 157.554 56.7727C157.902 57.5227 158.08 58.3826 158.088 59.3523C158.08 60.7765 157.717 62.0114 156.997 63.0568C156.285 64.0947 155.255 64.9015 153.906 65.4773C152.565 66.0455 150.948 66.3295 149.054 66.3295C147.175 66.3295 145.539 66.0417 144.145 65.4659C142.759 64.8902 141.675 64.0379 140.895 62.9091C140.122 61.7727 139.717 60.3674 139.679 58.6932H144.44C144.493 59.4735 144.717 60.125 145.111 60.6477C145.512 61.1629 146.046 61.553 146.713 61.8182C147.387 62.0758 148.149 62.2045 148.997 62.2045C149.83 62.2045 150.554 62.0833 151.168 61.8409C151.789 61.5985 152.27 61.2614 152.611 60.8295C152.952 60.3977 153.122 59.9015 153.122 59.3409C153.122 58.8182 152.967 58.3788 152.656 58.0227C152.353 57.6667 151.906 57.3636 151.315 57.1136C150.732 56.8636 150.016 56.6364 149.168 56.4318L146.634 55.7955C144.671 55.3182 143.122 54.572 141.986 53.5568C140.849 52.5417 140.285 51.1742 140.293 49.4545C140.285 48.0455 140.66 46.8144 141.418 45.7614C142.183 44.7083 143.232 43.8864 144.565 43.2955C145.899 42.7045 147.414 42.4091 149.111 42.4091C150.838 42.4091 152.346 42.7045 153.634 43.2955C154.929 43.8864 155.937 44.7083 156.656 45.7614C157.376 46.8144 157.747 48.0341 157.77 49.4205H153.054ZM161.398 66V42.7273H177.08V46.7841H166.318V52.3295H176.273V56.3864H166.318V61.9432H177.125V66H161.398ZM189.241 66H180.991V42.7273H189.31C191.651 42.7273 193.666 43.1932 195.355 44.125C197.045 45.0492 198.344 46.3788 199.253 48.1136C200.17 49.8485 200.628 51.9242 200.628 54.3409C200.628 56.7652 200.17 58.8485 199.253 60.5909C198.344 62.3333 197.037 63.6705 195.332 64.6023C193.635 65.5341 191.605 66 189.241 66ZM185.912 61.7841H189.037C190.491 61.7841 191.715 61.5265 192.707 61.0114C193.707 60.4886 194.457 59.6818 194.957 58.5909C195.465 57.4924 195.719 56.0758 195.719 54.3409C195.719 52.6212 195.465 51.2159 194.957 50.125C194.457 49.0341 193.711 48.2311 192.719 47.7159C191.726 47.2008 190.503 46.9432 189.048 46.9432H185.912V61.7841ZM3.13636 85.7841V81.7273H22.25V85.7841H15.125V105H10.2614V85.7841H3.13636ZM35.2131 91.4432V95.2841H24.5994V91.4432H35.2131ZM52.054 88.4205C51.9631 87.5038 51.5729 86.7917 50.8835 86.2841C50.1941 85.7765 49.2585 85.5227 48.0767 85.5227C47.2737 85.5227 46.5956 85.6364 46.0426 85.8636C45.4896 86.0833 45.0653 86.3902 44.7699 86.7841C44.482 87.178 44.3381 87.625 44.3381 88.125C44.3229 88.5417 44.41 88.9053 44.5994 89.2159C44.7964 89.5265 45.0653 89.7955 45.4062 90.0227C45.7472 90.2424 46.1411 90.4356 46.5881 90.6023C47.035 90.7614 47.5123 90.8977 48.0199 91.0114L50.1108 91.5114C51.1259 91.7386 52.0578 92.0417 52.9062 92.4205C53.7547 92.7992 54.4896 93.2652 55.1108 93.8182C55.732 94.3712 56.2131 95.0227 56.554 95.7727C56.9025 96.5227 57.0805 97.3826 57.0881 98.3523C57.0805 99.7765 56.7169 101.011 55.9972 102.057C55.285 103.095 54.2547 103.902 52.9062 104.477C51.5653 105.045 49.9479 105.33 48.054 105.33C46.1752 105.33 44.5388 105.042 43.1449 104.466C41.7585 103.89 40.6752 103.038 39.8949 101.909C39.1222 100.773 38.7169 99.3674 38.679 97.6932H43.4403C43.4934 98.4735 43.7169 99.125 44.1108 99.6477C44.5123 100.163 45.0464 100.553 45.7131 100.818C46.3873 101.076 47.1487 101.205 47.9972 101.205C48.8305 101.205 49.554 101.083 50.1676 100.841C50.7888 100.598 51.2699 100.261 51.6108 99.8295C51.9517 99.3977 52.1222 98.9015 52.1222 98.3409C52.1222 97.8182 51.9669 97.3788 51.6562 97.0227C51.3532 96.6667 50.9063 96.3636 50.3153 96.1136C49.732 95.8636 49.0161 95.6364 48.1676 95.4318L45.6335 94.7955C43.6714 94.3182 42.1222 93.572 40.9858 92.5568C39.8494 91.5417 39.285 90.1742 39.2926 88.4545C39.285 87.0455 39.66 85.8144 40.4176 84.7614C41.1828 83.7083 42.232 82.8864 43.5653 82.2955C44.8987 81.7045 46.4138 81.4091 48.1108 81.4091C49.8381 81.4091 51.3456 81.7045 52.6335 82.2955C53.929 82.8864 54.9366 83.7083 55.6562 84.7614C56.3759 85.8144 56.7472 87.0341 56.7699 88.4205H52.054ZM60.3977 105V81.7273H65.3182V91.3295H75.3068V81.7273H80.2159V105H75.3068V95.3864H65.3182V105H60.3977ZM89.1932 81.7273V105H84.2727V81.7273H89.1932ZM93.2415 105V81.7273H102.423C104.181 81.7273 105.681 82.0417 106.923 82.6705C108.173 83.2917 109.124 84.1742 109.776 85.3182C110.435 86.4545 110.764 87.7917 110.764 89.3295C110.764 90.875 110.431 92.2045 109.764 93.3182C109.098 94.4242 108.132 95.2727 106.866 95.8636C105.609 96.4545 104.086 96.75 102.298 96.75H96.1506V92.7955H101.503C102.442 92.7955 103.223 92.6667 103.844 92.4091C104.465 92.1515 104.927 91.7652 105.23 91.25C105.541 90.7348 105.696 90.0947 105.696 89.3295C105.696 88.5568 105.541 87.9053 105.23 87.375C104.927 86.8447 104.461 86.4432 103.832 86.1705C103.211 85.8902 102.427 85.75 101.48 85.75H98.1619V105H93.2415ZM105.81 94.4091L111.594 105H106.162L100.503 94.4091H105.81ZM113.355 85.7841V81.7273H132.469V85.7841H125.344V105H120.48V85.7841H113.355Z" fill="#1E1E1E"/>
<path d="M4.02273 3.72727V0.727272H1.02273V3.72727H4.02273ZM10.0909 3.72727L12.8668 2.58949L12.1035 0.727272H10.0909V3.72727ZM16.5 19.3636L13.7241 20.5014L14.4874 22.3636H16.5V19.3636ZM16.7727 19.3636V22.3636H18.7853L19.5486 20.5014L16.7727 19.3636ZM23.1818 3.72727V0.727272H21.1692L20.4059 2.58949L23.1818 3.72727ZM29.25 3.72727H32.25V0.727272H29.25V3.72727ZM29.25 27V30H32.25V27H29.25ZM24.4773 27H21.4773V30H24.4773V27ZM24.4773 11.8523H27.4773V8.85227H24.4773V11.8523ZM24.2841 11.8523V8.85227H22.2541L21.4992 10.7366L24.2841 11.8523ZM18.2614 26.8864V29.8864H20.2913L21.0462 28.002L18.2614 26.8864ZM15.0114 26.8864L12.2251 27.9984L12.9786 29.8864H15.0114V26.8864ZM8.98864 11.7955L11.7749 10.6835L11.0214 8.79545H8.98864V11.7955ZM8.79545 11.7955V8.79545H5.79545V11.7955H8.79545ZM8.79545 27V30H11.7955V27H8.79545ZM4.02273 27H1.02273V30H4.02273V27ZM4.02273 3.72727V6.72727H10.0909V3.72727V0.727272H4.02273V3.72727ZM10.0909 3.72727L7.31504 4.86506L13.7241 20.5014L16.5 19.3636L19.2759 18.2259L12.8668 2.58949L10.0909 3.72727ZM16.5 19.3636V22.3636H16.7727V19.3636V16.3636H16.5V19.3636ZM16.7727 19.3636L19.5486 20.5014L25.9577 4.86506L23.1818 3.72727L20.4059 2.58949L13.9969 18.2259L16.7727 19.3636ZM23.1818 3.72727V6.72727H29.25V3.72727V0.727272H23.1818V3.72727ZM29.25 3.72727H26.25V27H29.25H32.25V3.72727H29.25ZM29.25 27V24H24.4773V27V30H29.25V27ZM24.4773 27H27.4773V11.8523H24.4773H21.4773V27H24.4773ZM24.4773 11.8523V8.85227H24.2841V11.8523V14.8523H24.4773V11.8523ZM24.2841 11.8523L21.4992 10.7366L15.4765 25.7707L18.2614 26.8864L21.0462 28.002L27.0689 12.9679L24.2841 11.8523ZM18.2614 26.8864V23.8864H15.0114V26.8864V29.8864H18.2614V26.8864ZM15.0114 26.8864L17.7977 25.7744L11.7749 10.6835L8.98864 11.7955L6.20234 12.9075L12.2251 27.9984L15.0114 26.8864ZM8.98864 11.7955V8.79545H8.79545V11.7955V14.7955H8.98864V11.7955ZM8.79545 11.7955H5.79545V27H8.79545H11.7955V11.7955H8.79545ZM8.79545 27V24H4.02273V27V30H8.79545V27ZM4.02273 27H7.02273V3.72727H4.02273H1.02273V27H4.02273ZM53.2472 21.8409L50.6079 20.4146L50.6032 20.4233L53.2472 21.8409ZM49.3381 25.9205L50.8174 28.5304L50.8213 28.5281L49.3381 25.9205ZM38.2244 25.9091L39.7128 23.3044L38.2244 25.9091ZM34.3267 21.8295L31.6828 23.2471L34.3267 21.8295ZM34.3267 8.88636L36.9706 10.304V10.304L34.3267 8.88636ZM38.2244 4.81818L39.7038 7.42809L39.7128 7.42291L38.2244 4.81818ZM49.3381 4.81818L47.8497 7.42291L47.8568 7.42697L47.8639 7.43099L49.3381 4.81818ZM53.2472 8.88636L50.6032 10.304L50.6079 10.3127L53.2472 8.88636ZM48.9631 11.2045L46.2066 12.3885L46.2099 12.3963L46.2133 12.4041L48.9631 11.2045ZM46.9062 8.63636L45.257 11.1424V11.1424L46.9062 8.63636ZM40.679 8.63636L42.3282 11.1424V11.1424L40.679 8.63636ZM38.6108 11.2045L35.8611 10.005L35.8577 10.0128L35.8543 10.0206L38.6108 11.2045ZM38.6108 19.5227L35.8543 20.7067L35.8577 20.7145L35.8611 20.7223L38.6108 19.5227ZM40.679 22.0909L42.3282 19.5849L40.679 22.0909ZM46.9062 22.0909L45.257 19.5849L46.9062 22.0909ZM48.9631 19.5227L46.2133 18.3232L46.2099 18.3309L46.2066 18.3387L48.9631 19.5227ZM54.6903 15.3636H51.6903C51.6903 17.5277 51.2805 19.17 50.6079 20.4146L53.2472 21.8409L55.8864 23.2672C57.1381 20.9512 57.6903 18.2753 57.6903 15.3636H54.6903ZM53.2472 21.8409L50.6032 20.4233C49.8981 21.7384 48.9836 22.6707 47.8548 23.3128L49.3381 25.9205L50.8213 28.5281C52.9956 27.2914 54.6871 25.504 55.8911 23.2585L53.2472 21.8409ZM49.3381 25.9205L47.8587 23.3106C46.7044 23.9649 45.3732 24.3182 43.7926 24.3182V27.3182V30.3182C46.3181 30.3182 48.6839 29.7397 50.8174 28.5303L49.3381 25.9205ZM43.7926 27.3182V24.3182C42.197 24.3182 40.8623 23.9612 39.7128 23.3044L38.2244 25.9091L36.736 28.5138C38.8744 29.7358 41.2519 30.3182 43.7926 30.3182V27.3182ZM38.2244 25.9091L39.7128 23.3044C38.5909 22.6633 37.6777 21.7306 36.9706 20.4119L34.3267 21.8295L31.6828 23.2471C32.8848 25.4891 34.5701 27.2761 36.736 28.5138L38.2244 25.9091ZM34.3267 21.8295L36.9706 20.4119C36.3016 19.1642 35.8949 17.5219 35.8949 15.3636H32.8949H29.8949C29.8949 18.266 30.4427 20.9343 31.6828 23.2471L34.3267 21.8295ZM32.8949 15.3636H35.8949C35.8949 13.1961 36.3023 11.5505 36.9706 10.304L34.3267 8.88636L31.6828 7.46876C30.442 9.78281 29.8949 12.4554 29.8949 15.3636H32.8949ZM34.3267 8.88636L36.9706 10.304C37.6767 8.98713 38.5872 8.06097 39.7038 7.42808L38.2244 4.81818L36.7451 2.20829C34.5738 3.43903 32.8858 5.22499 31.6828 7.46876L34.3267 8.88636ZM38.2244 4.81818L39.7128 7.42291C40.8623 6.76607 42.197 6.40909 43.7926 6.40909V3.40909V0.40909C41.2519 0.40909 38.8744 0.991509 36.736 2.21345L38.2244 4.81818ZM43.7926 3.40909V6.40909C45.3689 6.40909 46.6968 6.76415 47.8497 7.42291L49.3381 4.81818L50.8265 2.21345C48.6914 0.993425 46.3224 0.40909 43.7926 0.40909V3.40909ZM49.3381 4.81818L47.8639 7.43099C48.9873 8.06485 49.8991 8.99068 50.6032 10.304L53.2472 8.88636L55.8911 7.46876C54.6862 5.22144 52.9919 3.43515 50.8123 2.20538L49.3381 4.81818ZM53.2472 8.88636L50.6079 10.3127C51.2805 11.5572 51.6903 13.1995 51.6903 15.3636H54.6903H57.6903C57.6903 12.452 57.1381 9.7761 55.8864 7.46005L53.2472 8.88636ZM49.7017 15.3636H52.7017C52.7017 13.4379 52.4157 11.6161 51.7128 10.005L48.9631 11.2045L46.2133 12.4041C46.4953 13.0505 46.7017 14.0015 46.7017 15.3636H49.7017ZM48.9631 11.2045L51.7195 10.0206C51.0404 8.43948 50.0061 7.08504 48.5555 6.13037L46.9062 8.63636L45.257 11.1424C45.5791 11.3544 45.916 11.712 46.2066 12.3885L48.9631 11.2045ZM46.9062 8.63636L48.5555 6.13037C47.1216 5.1867 45.4949 4.76136 43.7926 4.76136V7.76136V10.7614C44.4691 10.7614 44.9182 10.9194 45.257 11.1424L46.9062 8.63636ZM43.7926 7.76136V4.76136C42.0903 4.76136 40.4636 5.1867 39.0297 6.13037L40.679 8.63636L42.3282 11.1424C42.6671 10.9194 43.1161 10.7614 43.7926 10.7614V7.76136ZM40.679 8.63636L39.0297 6.13037C37.5836 7.08209 36.5478 8.43084 35.8611 10.005L38.6108 11.2045L41.3605 12.4041C41.6587 11.7207 42.0016 11.3573 42.3282 11.1424L40.679 8.63636ZM38.6108 11.2045L35.8543 10.0206C35.1643 11.6269 34.8835 13.4428 34.8835 15.3636H37.8835H40.8835C40.8835 13.9966 41.0875 13.0398 41.3673 12.3885L38.6108 11.2045ZM37.8835 15.3636H34.8835C34.8835 17.2845 35.1643 19.1004 35.8543 20.7067L38.6108 19.5227L41.3673 18.3387C41.0875 17.6875 40.8835 16.7307 40.8835 15.3636H37.8835ZM38.6108 19.5227L35.8611 20.7223C36.5478 22.2964 37.5836 23.6452 39.0297 24.5969L40.679 22.0909L42.3282 19.5849C42.0016 19.37 41.6587 19.0066 41.3605 18.3232L38.6108 19.5227ZM40.679 22.0909L39.0297 24.5969C40.4636 25.5406 42.0903 25.9659 43.7926 25.9659V22.9659V19.9659C43.1161 19.9659 42.6671 19.8079 42.3282 19.5849L40.679 22.0909ZM43.7926 22.9659V25.9659C45.4949 25.9659 47.1216 25.5406 48.5555 24.5969L46.9062 22.0909L45.257 19.5849C44.9182 19.8079 44.4691 19.9659 43.7926 19.9659V22.9659ZM46.9062 22.0909L48.5555 24.5969C50.0061 23.6422 51.0404 22.2878 51.7195 20.7067L48.9631 19.5227L46.2066 18.3387C45.916 19.0152 45.5791 19.3729 45.257 19.5849L46.9062 22.0909ZM48.9631 19.5227L51.7128 20.7223C52.4157 19.1111 52.7017 17.2894 52.7017 15.3636H49.7017H46.7017C46.7017 16.7257 46.4953 17.6767 46.2133 18.3232L48.9631 19.5227ZM70.9602 10.4205L67.9749 10.7165L68.243 13.4205H70.9602V10.4205ZM64.9489 7.86364L66.0564 10.6517L66.0729 10.6452L66.0892 10.6385L64.9489 7.86364ZM63.6761 8.78409L61.2761 6.98409L61.265 6.999L61.254 7.01404L63.6761 8.78409ZM63.2443 10.125L66.2423 10.234L66.2443 10.1795V10.125H63.2443ZM63.5057 11.2159L60.9443 12.7777L60.958 12.8003L60.9722 12.8225L63.5057 11.2159ZM64.3125 12.0227L62.6484 14.5189L62.6678 14.5318L62.6874 14.5444L64.3125 12.0227ZM65.4943 12.6023L64.4462 15.4132L64.4672 15.4211L64.4883 15.4286L65.4943 12.6023ZM66.9261 13.0114L67.6239 10.0936L67.6027 10.0886L67.5816 10.0838L66.9261 13.0114ZM69.017 13.5114L68.3193 16.4291L68.3404 16.4341L68.3616 16.4389L69.017 13.5114ZM71.8125 14.4205L70.5895 17.1599L71.8125 14.4205ZM74.017 15.8182L76.0118 13.5775L74.017 15.8182ZM75.4602 17.7727L72.7291 19.0141L72.7343 19.0255L72.7396 19.0369L75.4602 17.7727ZM75.9943 20.3523L78.9943 20.3682L78.9944 20.3485L78.9942 20.3288L75.9943 20.3523ZM74.9034 24.0568L72.4323 22.3557L72.4297 22.3595L74.9034 24.0568ZM71.8125 26.4773L72.9829 29.2395L72.9905 29.2363L71.8125 26.4773ZM62.0511 26.4659L60.9005 29.2365L60.9059 29.2387L62.0511 26.4659ZM58.8011 23.9091L56.3204 25.596L56.3268 25.6055L56.3334 25.615L58.8011 23.9091ZM57.5852 19.6932V16.6932H54.5166L54.586 19.761L57.5852 19.6932ZM62.3466 19.6932L65.3397 19.4898L65.1496 16.6932H62.3466V19.6932ZM63.017 21.6477L60.6212 23.4533L60.6359 23.4727L60.6509 23.492L63.017 21.6477ZM64.6193 22.8182L63.5106 25.6058L63.5296 25.6133L63.5487 25.6206L64.6193 22.8182ZM69.0739 22.8409L67.9832 20.0462L67.9716 20.0508L69.0739 22.8409ZM70.517 21.8295L72.8717 23.6885V23.6885L70.517 21.8295ZM70.5625 19.0227L68.2779 20.9671L68.2897 20.981L68.3018 20.9948L70.5625 19.0227ZM69.2216 18.1136L68.0398 20.8711L68.0527 20.8765L69.2216 18.1136ZM67.0739 17.4318L66.3432 20.3415L66.357 20.3449L66.3708 20.3483L67.0739 17.4318ZM64.5398 16.7955L65.2705 13.8858L65.2596 13.8831L65.2488 13.8805L64.5398 16.7955ZM59.892 14.5568L57.8934 16.7941L59.892 14.5568ZM58.1989 10.4545L61.1988 10.4678L61.1989 10.4531L61.1988 10.4384L58.1989 10.4545ZM59.3239 6.76136L56.8969 4.99789L56.8927 5.00362L56.8886 5.00937L59.3239 6.76136ZM71.5398 4.29545L70.2887 7.02215L70.2948 7.02491L71.5398 4.29545ZM74.5625 6.76136L72.0857 8.45414L72.0857 8.45414L74.5625 6.76136ZM75.6761 10.4205V13.4205H78.7257L78.6757 10.3713L75.6761 10.4205ZM70.9602 10.4205L73.9456 10.1244C73.778 8.43439 72.9985 6.92115 71.5685 5.86826L69.7898 8.28409L68.0111 10.6999C68.0215 10.7076 68.0167 10.7055 68.0043 10.6914C67.9984 10.6848 67.9919 10.6767 67.9854 10.6675C67.9788 10.6582 67.9731 10.6489 67.9684 10.6403C67.9584 10.6221 67.9566 10.6135 67.9588 10.6211C67.9613 10.6294 67.9692 10.6592 67.9749 10.7165L70.9602 10.4205ZM69.7898 8.28409L71.5685 5.86826C70.2001 4.8608 68.5665 4.52273 66.983 4.52273V7.52273V10.5227C67.7631 10.5227 68.0006 10.6922 68.0111 10.6999L69.7898 8.28409ZM66.983 7.52273V4.52273C65.9152 4.52273 64.8244 4.67135 63.8085 5.08882L64.9489 7.86364L66.0892 10.6385C66.1794 10.6014 66.4446 10.5227 66.983 10.5227V7.52273ZM64.9489 7.86364L63.8413 5.07558C62.8822 5.4566 61.9663 6.06385 61.2761 6.98409L63.6761 8.78409L66.0761 10.5841C66.055 10.6123 66.0338 10.6358 66.0147 10.6544C65.9958 10.6728 65.9812 10.6842 65.974 10.6894C65.9597 10.6997 65.9799 10.6821 66.0564 10.6517L64.9489 7.86364ZM63.6761 8.78409L61.254 7.01404C60.5808 7.93526 60.2443 9.00554 60.2443 10.125H63.2443H66.2443C66.2443 10.1669 66.2376 10.242 66.2079 10.3344C66.1779 10.4275 66.1359 10.5028 66.0983 10.5541L63.6761 8.78409ZM63.2443 10.125L60.2463 10.016C60.213 10.9321 60.4058 11.8946 60.9443 12.7777L63.5057 11.2159L66.0671 9.65409C66.1399 9.77349 66.1884 9.89722 66.2157 10.0113C66.2423 10.1222 66.2435 10.2014 66.2423 10.234L63.2443 10.125ZM63.5057 11.2159L60.9722 12.8225C61.418 13.5255 61.9986 14.0857 62.6484 14.5189L64.3125 12.0227L65.9766 9.52658C65.958 9.51416 65.9609 9.51375 65.9764 9.52925C65.9925 9.54536 66.0157 9.57215 66.0392 9.60928L63.5057 11.2159ZM64.3125 12.0227L62.6874 14.5444C63.2381 14.8993 63.8314 15.184 64.4462 15.4132L65.4943 12.6023L66.5425 9.79133C66.2633 9.68723 66.0687 9.58552 65.9376 9.50101L64.3125 12.0227ZM65.4943 12.6023L64.4883 15.4286C65.0603 15.6322 65.6555 15.8012 66.2707 15.9389L66.9261 13.0114L67.5816 10.0838C67.1816 9.99429 66.8222 9.89056 66.5003 9.77596L65.4943 12.6023ZM66.9261 13.0114L66.2284 15.9291L68.3193 16.4291L69.017 13.5114L69.7148 10.5936L67.6239 10.0936L66.9261 13.0114ZM69.017 13.5114L68.3616 16.4389C69.2046 16.6276 69.9437 16.8715 70.5895 17.1599L71.8125 14.4205L73.0355 11.681C71.9844 11.2118 70.8598 10.8497 69.6725 10.5838L69.017 13.5114ZM71.8125 14.4205L70.5895 17.1599C71.1893 17.4276 71.6564 17.7332 72.0223 18.0589L74.017 15.8182L76.0118 13.5775C75.1353 12.7971 74.1327 12.1709 73.0355 11.681L71.8125 14.4205ZM74.017 15.8182L72.0223 18.0589C72.3341 18.3365 72.563 18.6487 72.7291 19.0141L75.4602 17.7727L78.1913 16.5313C77.6756 15.3968 76.9424 14.4059 76.0118 13.5775L74.017 15.8182ZM75.4602 17.7727L72.7396 19.0369C72.8789 19.3366 72.9896 19.7615 72.9944 20.3757L75.9943 20.3523L78.9942 20.3288C78.9839 19.0037 78.7386 17.7088 78.1809 16.5086L75.4602 17.7727ZM75.9943 20.3523L72.9944 20.3363C72.9896 21.2348 72.7698 21.8655 72.4323 22.3557L74.9034 24.0568L77.3745 25.7579C78.4764 24.1572 78.9839 22.3182 78.9943 20.3682L75.9943 20.3523ZM74.9034 24.0568L72.4297 22.3595C72.0901 22.8545 71.5471 23.3286 70.6345 23.7182L71.8125 26.4773L72.9905 29.2363C74.7749 28.4744 76.2925 27.3349 77.3771 25.7541L74.9034 24.0568ZM71.8125 26.4773L70.6421 23.715C69.7646 24.0868 68.5674 24.3295 66.9602 24.3295V27.3295V30.3295C69.141 30.3295 71.1786 30.0041 72.9829 29.2395L71.8125 26.4773ZM66.9602 27.3295V24.3295C65.381 24.3295 64.1498 24.0869 63.1964 23.6931L62.0511 26.4659L60.9059 29.2387C62.7403 29.9964 64.7818 30.3295 66.9602 30.3295V27.3295ZM62.0511 26.4659L63.2018 23.6953C62.2956 23.319 61.6909 22.8137 61.2689 22.2032L58.8011 23.9091L56.3334 25.615C57.472 27.2621 59.0339 28.4613 60.9005 29.2365L62.0511 26.4659ZM58.8011 23.9091L61.2819 22.2222C60.8994 21.6596 60.6121 20.8485 60.5845 19.6253L57.5852 19.6932L54.586 19.761C54.6341 21.8863 55.1574 23.8858 56.3204 25.596L58.8011 23.9091ZM57.5852 19.6932V22.6932H62.3466V19.6932V16.6932H57.5852V19.6932ZM62.3466 19.6932L59.3535 19.8966C59.4382 21.1428 59.8137 22.3817 60.6212 23.4533L63.017 21.6477L65.4129 19.8422C65.4128 19.8421 65.4125 19.8417 65.412 19.8409C65.4115 19.8401 65.4104 19.8383 65.4089 19.8354C65.4059 19.8297 65.3996 19.8167 65.3917 19.7936C65.3759 19.7476 65.3507 19.6524 65.3397 19.4898L62.3466 19.6932ZM63.017 21.6477L60.6509 23.492C61.4119 24.4684 62.3986 25.1635 63.5106 25.6058L64.6193 22.8182L65.728 20.0306C65.5067 19.9425 65.4252 19.8573 65.3832 19.8035L63.017 21.6477ZM64.6193 22.8182L63.5487 25.6206C64.6191 26.0295 65.752 26.2045 66.9034 26.2045V23.2045V20.2045C66.3579 20.2045 65.968 20.122 65.6899 20.0157L64.6193 22.8182ZM66.9034 23.2045V26.2045C68.0188 26.2045 69.1326 26.0433 70.1761 25.6311L69.0739 22.8409L67.9716 20.0508C67.7878 20.1234 67.4547 20.2045 66.9034 20.2045V23.2045ZM69.0739 22.8409L70.1645 25.6356C71.1774 25.2403 72.1365 24.6197 72.8717 23.6885L70.517 21.8295L68.1624 19.9706C68.1846 19.9425 68.1966 19.937 68.1789 19.9495C68.1588 19.9636 68.1002 20.0005 67.9832 20.0462L69.0739 22.8409ZM70.517 21.8295L72.8717 23.6885C73.6391 22.7164 74.0284 21.5622 74.0284 20.3409H71.0284H68.0284C68.0284 20.3124 68.0336 20.2453 68.0633 20.1589C68.0932 20.0718 68.1336 20.0071 68.1624 19.9706L70.517 21.8295ZM71.0284 20.3409H74.0284C74.0284 19.1759 73.6623 18.0125 72.8232 17.0506L70.5625 19.0227L68.3018 20.9948C68.2117 20.8915 68.1337 20.7615 68.0834 20.6191C68.0347 20.4811 68.0284 20.3791 68.0284 20.3409H71.0284ZM70.5625 19.0227L72.8471 17.0784C72.1498 16.259 71.2603 15.7187 70.3905 15.3507L69.2216 18.1136L68.0527 20.8765C68.2005 20.9391 68.2819 20.988 68.3165 21.0115C68.3501 21.0343 68.3262 21.0238 68.2779 20.9671L70.5625 19.0227ZM69.2216 18.1136L70.4034 15.3562C69.6199 15.0204 68.733 14.7459 67.7769 14.5154L67.0739 17.4318L66.3708 20.3483C67.1116 20.5269 67.6566 20.7068 68.0398 20.8711L69.2216 18.1136ZM67.0739 17.4318L67.8045 14.5222L65.2705 13.8858L64.5398 16.7955L63.8091 19.7051L66.3432 20.3415L67.0739 17.4318ZM64.5398 16.7955L65.2488 13.8805C63.6157 13.4832 62.5593 12.9169 61.8907 12.3195L59.892 14.5568L57.8934 16.7941C59.4975 18.2271 61.5396 19.1531 63.8307 19.7105L64.5398 16.7955ZM59.892 14.5568L61.8907 12.3195C61.4811 11.9537 61.1945 11.4514 61.1988 10.4678L58.1989 10.4545L55.1989 10.4413C55.1881 12.8971 56.0302 15.1297 57.8934 16.7941L59.892 14.5568ZM58.1989 10.4545L61.1988 10.4384C61.1943 9.60584 61.4043 9.00655 61.7591 8.51336L59.3239 6.76136L56.8886 5.00937C55.7283 6.62223 55.1882 8.48507 55.1989 10.4707L58.1989 10.4545ZM59.3239 6.76136L61.7508 8.52484C62.1693 7.9489 62.7773 7.44137 63.6871 7.03817L62.4716 4.29545L61.2561 1.55274C59.4992 2.33135 58.0087 3.46777 56.8969 4.99789L59.3239 6.76136ZM62.4716 4.29545L63.6871 7.03817C64.5801 6.64241 65.6709 6.40909 67.017 6.40909V3.40909V0.40909C64.9693 0.40909 63.0297 0.766679 61.2561 1.55274L62.4716 4.29545ZM67.017 3.40909V6.40909C68.4051 6.40909 69.4696 6.64631 70.2887 7.02214L71.5398 4.29545L72.7908 1.56877C71.0342 0.762785 69.0835 0.40909 67.017 0.40909V3.40909ZM71.5398 4.29545L70.2948 7.02491C71.1523 7.41605 71.7094 7.90349 72.0857 8.45414L74.5625 6.76136L77.0393 5.06859C75.9762 3.51318 74.5182 2.35667 72.7848 1.566L71.5398 4.29545ZM74.5625 6.76136L72.0857 8.45414C72.4451 8.98001 72.6626 9.61711 72.6765 10.4696L75.6761 10.4205L78.6757 10.3713C78.6443 8.45107 78.1193 6.64877 77.0393 5.06859L74.5625 6.76136ZM75.6761 10.4205V7.42045H70.9602V10.4205V13.4205H75.6761V10.4205ZM78.4176 7.78409H75.4176V10.7841H78.4176V7.78409ZM78.4176 3.72727V0.727272H75.4176V3.72727H78.4176ZM97.5312 3.72727H100.531V0.727272H97.5312V3.72727ZM97.5312 7.78409V10.7841H100.531V7.78409H97.5312ZM90.4062 7.78409V4.78409H87.4062V7.78409H90.4062ZM90.4062 27V30H93.4062V27H90.4062ZM85.5426 27H82.5426V30H85.5426V27ZM85.5426 7.78409H88.5426V4.78409H85.5426V7.78409ZM78.4176 7.78409H81.4176V3.72727H78.4176H75.4176V7.78409H78.4176ZM78.4176 3.72727V6.72727H97.5312V3.72727V0.727272H78.4176V3.72727ZM97.5312 3.72727H94.5312V7.78409H97.5312H100.531V3.72727H97.5312ZM97.5312 7.78409V4.78409H90.4062V7.78409V10.7841H97.5312V7.78409ZM90.4062 7.78409H87.4062V27H90.4062H93.4062V7.78409H90.4062ZM90.4062 27V24H85.5426V27V30H90.4062V27ZM85.5426 27H88.5426V7.78409H85.5426H82.5426V27H85.5426ZM85.5426 7.78409V4.78409H78.4176V7.78409V10.7841H85.5426V7.78409ZM4.02273 66H1.02273V69H4.02273V66ZM4.02273 42.7273V39.7273H1.02273V42.7273H4.02273ZM17.7159 43.7386L16.285 46.3754L16.2912 46.3788L16.2975 46.3821L17.7159 43.7386ZM20.5568 46.5227L17.9257 47.964L17.9312 47.974L17.9367 47.9839L20.5568 46.5227ZM17.6477 57.4659L16.2617 54.8053L16.2551 54.8087L17.6477 57.4659ZM7.22727 58.4545H4.22727V61.4545H7.22727V58.4545ZM7.22727 54.5114V51.5114H4.22727V54.5114H7.22727ZM14.625 54.0227L16.0317 56.6725L16.0435 56.6662L14.625 54.0227ZM16.0114 52.6477L13.3559 51.2519L13.3525 51.2583L13.3491 51.2648L16.0114 52.6477ZM16.0114 48.5909L13.3491 49.9739L13.3599 49.9947L13.3711 50.0153L16.0114 48.5909ZM14.625 47.2386L13.2318 49.8955L13.2445 49.9022L13.2574 49.9088L14.625 47.2386ZM8.94318 46.75V43.75H5.94318V46.75H8.94318ZM8.94318 66V69H11.9432V66H8.94318ZM4.02273 66H7.02273V42.7273H4.02273H1.02273V66H4.02273ZM4.02273 42.7273V45.7273H13.2045V42.7273V39.7273H4.02273V42.7273ZM13.2045 42.7273V45.7273C14.5921 45.7273 15.578 45.9917 16.285 46.3754L17.7159 43.7386L19.1468 41.1019C17.369 40.1371 15.3473 39.7273 13.2045 39.7273V42.7273ZM17.7159 43.7386L16.2975 46.3821C17.0492 46.7855 17.5649 47.3053 17.9257 47.964L20.5568 46.5227L23.1879 45.0815C22.2457 43.3614 20.8675 42.0251 19.1344 41.0952L17.7159 43.7386ZM20.5568 46.5227L17.9367 47.9839C18.3131 48.6589 18.5455 49.506 18.5455 50.6136H21.5455H24.5455C24.5455 48.6303 24.1187 46.7502 23.1769 45.0615L20.5568 46.5227ZM21.5455 50.6136H18.5455C18.5455 51.7155 18.3119 52.558 17.9325 53.2306L20.5455 54.7045L23.1584 56.1785C24.1123 54.4874 24.5455 52.6027 24.5455 50.6136H21.5455ZM20.5455 54.7045L17.9325 53.2306C17.5663 53.8798 17.0394 54.4001 16.2617 54.8053L17.6477 57.4659L19.0338 60.1265C20.7864 59.2135 22.1913 57.893 23.1584 56.1785L20.5455 54.7045ZM17.6477 57.4659L16.2551 54.8087C15.5243 55.1917 14.5053 55.4545 13.0795 55.4545V58.4545V61.4545C15.2295 61.4545 17.256 61.0583 19.0403 60.1231L17.6477 57.4659ZM13.0795 58.4545V55.4545H7.22727V58.4545V61.4545H13.0795V58.4545ZM7.22727 58.4545H10.2273V54.5114H7.22727H4.22727V58.4545H7.22727ZM7.22727 54.5114V57.5114H12.2841V54.5114V51.5114H7.22727V54.5114ZM12.2841 54.5114V57.5114C13.5519 57.5114 14.8563 57.2964 16.0317 56.6725L14.625 54.0227L13.2183 51.373C13.1664 51.4005 12.9103 51.5114 12.2841 51.5114V54.5114ZM14.625 54.0227L16.0435 56.6662C17.1561 56.0692 18.0718 55.1892 18.6736 54.0307L16.0114 52.6477L13.3491 51.2648C13.3396 51.2832 13.3329 51.291 13.3249 51.2989C13.3156 51.3082 13.2833 51.3381 13.2065 51.3792L14.625 54.0227ZM16.0114 52.6477L18.6669 54.0436C19.2349 52.963 19.4773 51.7935 19.4773 50.6136H16.4773H13.4773C13.4773 50.9641 13.4091 51.1507 13.3559 51.2519L16.0114 52.6477ZM16.4773 50.6136H19.4773C19.4773 49.4338 19.2377 48.2529 18.6517 47.1665L16.0114 48.5909L13.3711 50.0153C13.4062 50.0804 13.4773 50.2481 13.4773 50.6136H16.4773ZM16.0114 48.5909L18.6736 47.2079C18.065 46.0364 17.1323 45.1522 15.9926 44.5685L14.625 47.2386L13.2574 49.9088C13.291 49.926 13.3124 49.9398 13.3247 49.9485C13.3367 49.9571 13.3419 49.9621 13.3427 49.9629C13.3433 49.9635 13.3434 49.9636 13.3431 49.9633C13.343 49.9632 13.3429 49.963 13.3428 49.9629C13.3427 49.9627 13.3426 49.9627 13.3427 49.9627C13.3427 49.9627 13.3428 49.9628 13.343 49.9632C13.3432 49.9635 13.3436 49.964 13.3441 49.9648C13.345 49.9664 13.3468 49.9693 13.3491 49.9739L16.0114 48.5909ZM14.625 47.2386L16.0182 44.5818C14.8404 43.9642 13.5344 43.75 12.2614 43.75V46.75V49.75C12.8974 49.75 13.1671 49.8616 13.2318 49.8955L14.625 47.2386ZM12.2614 46.75V43.75H8.94318V46.75V49.75H12.2614V46.75ZM8.94318 46.75H5.94318V66H8.94318H11.9432V46.75H8.94318ZM8.94318 66V63H4.02273V66V69H8.94318V66ZM39.1165 42.7273V39.7273H36.1165V42.7273H39.1165ZM44.0369 42.7273H47.0369V39.7273H44.0369V42.7273ZM42.821 62.2955L40.2906 60.6838L40.2838 60.6946L42.821 62.2955ZM39.446 65.2727L40.7594 67.97L40.7707 67.9644L39.446 65.2727ZM29.321 65.2727L27.9963 67.9644L28.0077 67.97L29.321 65.2727ZM25.946 62.2955L23.4088 63.8963L25.946 62.2955ZM24.7415 42.7273V39.7273H21.7415V42.7273H24.7415ZM29.6619 42.7273H32.6619V39.7273H29.6619V42.7273ZM30.2415 59.7841L27.6245 61.2508L27.6306 61.2617L27.6367 61.2725L30.2415 59.7841ZM31.9006 61.4091L30.4484 64.0342H30.4484L31.9006 61.4091ZM36.8778 61.4091L35.4256 58.784L35.4137 58.7906L36.8778 61.4091ZM38.5256 59.7841L35.9208 58.2957L35.9146 58.3065L35.9085 58.3174L38.5256 59.7841ZM39.1165 42.7273V45.7273H44.0369V42.7273V39.7273H39.1165V42.7273ZM44.0369 42.7273H41.0369V57.8409H44.0369H47.0369V42.7273H44.0369ZM44.0369 57.8409H41.0369C41.0369 59.0402 40.7574 59.951 40.2907 60.6839L42.821 62.2955L45.3514 63.9071C46.5058 62.0945 47.0369 60.0355 47.0369 57.8409H44.0369ZM42.821 62.2955L40.2838 60.6946C39.7978 61.465 39.1082 62.0954 38.1213 62.581L39.446 65.2727L40.7707 67.9644C42.6778 67.0259 44.2382 65.6714 45.3582 63.8963L42.821 62.2955ZM39.446 65.2727L38.1327 62.5755C37.1673 63.0455 35.9464 63.3295 34.3892 63.3295V66.3295V69.3295C36.6805 69.3295 38.8308 68.909 40.7593 67.97L39.446 65.2727ZM34.3892 66.3295V63.3295C32.8224 63.3295 31.5982 63.0448 30.6343 62.5755L29.321 65.2727L28.0077 67.97C29.9377 68.9097 32.0924 69.3295 34.3892 69.3295V66.3295ZM29.321 65.2727L30.6457 62.581C29.6588 62.0954 28.9693 61.465 28.4832 60.6946L25.946 62.2955L23.4088 63.8963C24.5288 65.6714 26.0893 67.0259 27.9963 67.9644L29.321 65.2727ZM25.946 62.2955L28.4832 60.6946C28.0199 59.9603 27.7415 59.0456 27.7415 57.8409H24.7415H21.7415C21.7415 60.0301 22.2661 62.0851 23.4088 63.8963L25.946 62.2955ZM24.7415 57.8409H27.7415V42.7273H24.7415H21.7415V57.8409H24.7415ZM24.7415 42.7273V45.7273H29.6619V42.7273V39.7273H24.7415V42.7273ZM29.6619 42.7273H26.6619V57.4205H29.6619H32.6619V42.7273H29.6619ZM29.6619 57.4205H26.6619C26.6619 58.7568 26.9576 60.0609 27.6245 61.2508L30.2415 59.7841L32.8585 58.3174C32.7526 58.1285 32.6619 57.8568 32.6619 57.4205H29.6619ZM30.2415 59.7841L27.6367 61.2725C28.3105 62.4516 29.2678 63.3811 30.4484 64.0342L31.9006 61.4091L33.3528 58.784C33.1091 58.6492 32.9603 58.4953 32.8462 58.2957L30.2415 59.7841ZM31.9006 61.4091L30.4484 64.0342C31.6729 64.7116 33.0179 65 34.3892 65V62V59C33.8666 59 33.5525 58.8945 33.3528 58.784L31.9006 61.4091ZM34.3892 62V65C35.7625 65 37.1146 64.7138 38.3419 64.0276L36.8778 61.4091L35.4137 58.7906C35.2319 58.8923 34.925 59 34.3892 59V62ZM36.8778 61.4091L38.33 64.0342C39.5153 63.3785 40.4749 62.4422 41.1426 61.2508L38.5256 59.7841L35.9085 58.3174C35.8035 58.5048 35.6646 58.6518 35.4257 58.784L36.8778 61.4091ZM38.5256 59.7841L41.1303 61.2725C41.8124 60.0788 42.1165 58.7668 42.1165 57.4205H39.1165H36.1165C36.1165 57.8468 36.0266 58.1106 35.9208 58.2957L38.5256 59.7841ZM39.1165 57.4205H42.1165V42.7273H39.1165H36.1165V57.4205H39.1165ZM48.0852 66H45.0852V69H48.0852V66ZM48.0852 42.7273V39.7273H45.0852V42.7273H48.0852ZM61.767 43.6705L60.4124 46.3472L60.4221 46.3521L60.4319 46.357L61.767 43.6705ZM64.6193 46.3182L62.0125 47.8029L62.0183 47.8131L62.0242 47.8233L64.6193 46.3182ZM64.608 54.3182L67.1773 55.8668L67.182 55.8591L64.608 54.3182ZM61.7102 56.8636L60.4407 54.1455L60.4344 54.1484L61.7102 56.8636ZM50.9943 57.75H47.9943V60.75H50.9943V57.75ZM50.9943 53.7955V50.7955H47.9943V53.7955H50.9943ZM58.6875 53.4091L59.8365 56.1803L58.6875 53.4091ZM60.0739 52.25L57.5047 50.701L57.4963 50.7149L57.4881 50.7289L60.0739 52.25ZM60.0739 48.375L57.4691 49.8634L57.4771 49.8774L57.4852 49.8912L60.0739 48.375ZM58.6761 47.1705L57.4423 49.905L57.4623 49.914L57.4824 49.9227L58.6761 47.1705ZM53.0057 46.75V43.75H50.0057V46.75H53.0057ZM53.0057 66V69H56.0057V66H53.0057ZM60.6534 55.4091L63.2863 53.9711L62.4332 52.4091H60.6534V55.4091ZM66.4375 66V69H71.4942L69.0704 64.5621L66.4375 66ZM61.0057 66L58.3597 67.4138L59.2073 69H61.0057V66ZM55.3466 55.4091V52.4091H50.3422L52.7006 56.8229L55.3466 55.4091ZM48.0852 66H51.0852V42.7273H48.0852H45.0852V66H48.0852ZM48.0852 42.7273V45.7273H57.267V42.7273V39.7273H48.0852V42.7273ZM57.267 42.7273V45.7273C58.6742 45.7273 59.6855 45.9793 60.4124 46.3472L61.767 43.6705L63.1217 40.9937C61.3638 40.104 59.375 39.7273 57.267 39.7273V42.7273ZM61.767 43.6705L60.4319 46.357C61.1819 46.7297 61.6742 47.209 62.0125 47.8029L64.6193 46.3182L67.2262 44.8335C66.2614 43.1395 64.8522 41.8536 63.1022 40.9839L61.767 43.6705ZM64.6193 46.3182L62.0242 47.8233C62.3759 48.4296 62.608 49.2293 62.608 50.3295H65.608H68.608C68.608 48.3541 68.1809 46.4795 67.2144 44.813L64.6193 46.3182ZM65.608 50.3295H62.608C62.608 51.4365 62.3728 52.2112 62.0339 52.7773L64.608 54.3182L67.182 55.8591C68.1765 54.1979 68.608 52.3135 68.608 50.3295H65.608ZM64.608 54.3182L62.0386 52.7695C61.7046 53.3236 61.212 53.7853 60.4407 54.1455L61.7102 56.8636L62.9798 59.5818C64.7388 58.7602 66.178 57.5249 67.1773 55.8668L64.608 54.3182ZM61.7102 56.8636L60.4344 54.1484C59.6733 54.5061 58.6107 54.75 57.142 54.75V57.75V60.75C59.2491 60.75 61.232 60.403 62.986 59.5788L61.7102 56.8636ZM57.142 57.75V54.75H50.9943V57.75V60.75H57.142V57.75ZM50.9943 57.75H53.9943V53.7955H50.9943H47.9943V57.75H50.9943ZM50.9943 53.7955V56.7955H56.3466V53.7955V50.7955H50.9943V53.7955ZM56.3466 53.7955V56.7955C57.5348 56.7955 58.7372 56.6361 59.8365 56.1803L58.6875 53.4091L57.5385 50.6379C57.3954 50.6972 57.0372 50.7955 56.3466 50.7955V53.7955ZM58.6875 53.4091L59.8365 56.1803C60.9807 55.7059 61.9853 54.9175 62.6597 53.7711L60.0739 52.25L57.4881 50.7289C57.4986 50.711 57.5126 50.6909 57.5295 50.6709C57.5465 50.651 57.5627 50.6355 57.5757 50.6246C57.6032 50.6016 57.6007 50.6121 57.5385 50.6379L58.6875 53.4091ZM60.0739 52.25L62.643 53.799C63.3026 52.7051 63.5398 51.4942 63.5398 50.3295H60.5398H57.5398C57.5398 50.6952 57.4664 50.7646 57.5047 50.701L60.0739 52.25ZM60.5398 50.3295H63.5398C63.5398 49.1593 63.3036 47.9532 62.6625 46.8588L60.0739 48.375L57.4852 49.8912C57.4654 49.8574 57.5398 49.9544 57.5398 50.3295H60.5398ZM60.0739 48.375L62.6786 46.8866C62.0152 45.7256 61.017 44.9157 59.8699 44.4182L58.6761 47.1705L57.4824 49.9227C57.5171 49.9378 57.5364 49.9489 57.5439 49.9535C57.5512 49.958 57.5482 49.9569 57.5387 49.9487C57.529 49.9403 57.516 49.9276 57.5022 49.9108C57.4883 49.8941 57.4772 49.8775 57.4691 49.8634L60.0739 48.375ZM58.6761 47.1705L59.91 44.4359C58.7809 43.9265 57.5412 43.75 56.3239 43.75V46.75V49.75C57.0005 49.75 57.3289 49.8538 57.4423 49.905L58.6761 47.1705ZM56.3239 46.75V43.75H53.0057V46.75V49.75H56.3239V46.75ZM53.0057 46.75H50.0057V66H53.0057H56.0057V46.75H53.0057ZM53.0057 66V63H48.0852V66V69H53.0057V66ZM60.6534 55.4091L58.0205 56.847L63.8046 67.4379L66.4375 66L69.0704 64.5621L63.2863 53.9711L60.6534 55.4091ZM66.4375 66V63H61.0057V66V69H66.4375V66ZM61.0057 66L63.6516 64.5862L57.9925 53.9953L55.3466 55.4091L52.7006 56.8229L58.3597 67.4138L61.0057 66ZM55.3466 55.4091V58.4091H60.6534V55.4091V52.4091H55.3466V55.4091ZM89.6193 50.875V53.875H92.9941L92.5987 50.5235L89.6193 50.875ZM84.642 50.875L81.6715 51.2944L82.0358 53.875H84.642V50.875ZM84.0852 49.1591L81.4591 50.6094L81.4637 50.6177L81.4684 50.6261L84.0852 49.1591ZM83.0057 47.8636L81.1169 50.1944L81.1169 50.1944L83.0057 47.8636ZM81.483 47.0455L80.5343 49.8915L80.5455 49.8952L81.483 47.0455ZM76.483 47.6591L78.1373 50.1617L78.1446 50.1569L78.1519 50.152L76.483 47.6591ZM74.4034 50.25L77.1532 51.4496L77.1561 51.4428L74.4034 50.25ZM74.4034 58.5455L71.6537 59.745L71.657 59.7527L71.6605 59.7605L74.4034 58.5455ZM76.4943 61.1023L74.8699 63.6244L76.4943 61.1023ZM81.4261 61.7045L80.5466 58.8364L80.5357 58.8397L81.4261 61.7045ZM82.9375 60.9432L84.7507 63.3333L84.7636 63.3234L84.7765 63.3134L82.9375 60.9432ZM84.0284 59.7045L81.4666 58.1434L81.4576 58.1581L81.4488 58.1729L84.0284 59.7045ZM84.642 58.0455L84.6557 55.0455L82.1431 55.034L81.691 57.5056L84.642 58.0455ZM89.6193 58.0682L92.5977 58.4273L93.0009 55.0836L89.633 55.0682L89.6193 58.0682ZM88.6534 61.1591L85.9908 59.7769L85.9867 59.7847L88.6534 61.1591ZM86.5966 63.8068L88.6068 66.0338L88.6078 66.0328L86.5966 63.8068ZM83.5284 65.6477L84.5897 68.4538L84.5994 68.4501L83.5284 65.6477ZM73.9489 64.9091L72.45 67.5079L72.4553 67.5108L73.9489 64.9091ZM70.0852 60.8295L67.4319 62.2296L67.4366 62.2384L70.0852 60.8295ZM70.108 47.8864L72.7519 49.304V49.304L70.108 47.8864ZM73.9943 43.8182L75.4788 46.4252L75.4879 46.4199L73.9943 43.8182ZM83.267 42.9773L82.3296 45.8271L82.3352 45.8289L83.267 42.9773ZM86.3466 44.6364L84.4533 46.9635L84.4593 46.9683L84.4653 46.9732L86.3466 44.6364ZM88.5284 47.2841L85.8845 48.7018L85.8885 48.7092L85.8925 48.7166L88.5284 47.2841ZM89.6193 50.875V47.875H84.642V50.875V53.875H89.6193V50.875ZM84.642 50.875L87.6126 50.4556C87.4766 49.4927 87.1869 48.557 86.7021 47.6921L84.0852 49.1591L81.4684 50.6261C81.5441 50.7612 81.6256 50.9694 81.6715 51.2944L84.642 50.875ZM84.0852 49.1591L86.7114 47.7088C86.2491 46.8717 85.6417 46.1384 84.8944 45.5328L83.0057 47.8636L81.1169 50.1944C81.2485 50.301 81.3607 50.4313 81.4591 50.6094L84.0852 49.1591ZM83.0057 47.8636L84.8944 45.5328C84.1523 44.9315 83.3171 44.4907 82.4204 44.1957L81.483 47.0455L80.5455 49.8952C80.8003 49.979 80.9802 50.0837 81.1169 50.1944L83.0057 47.8636ZM81.483 47.0455L82.4316 44.1994C81.5251 43.8972 80.5836 43.7614 79.6307 43.7614V46.7614V49.7614C80.011 49.7614 80.3045 49.8149 80.5343 49.8915L81.483 47.0455ZM79.6307 46.7614V43.7614C77.9056 43.7614 76.2597 44.1983 74.814 45.1662L76.483 47.6591L78.1519 50.152C78.4941 49.9229 78.9467 49.7614 79.6307 49.7614V46.7614ZM76.483 47.6591L74.8287 45.1564C73.3773 46.1158 72.3376 47.4721 71.6507 49.0572L74.4034 50.25L77.1561 51.4428C77.4541 50.7552 77.8007 50.3842 78.1373 50.1617L76.483 47.6591ZM74.4034 50.25L71.6537 49.0504C70.9535 50.6555 70.6648 52.4593 70.6648 54.3636H73.6648H76.6648C76.6648 53.0407 76.8685 52.1021 77.1532 51.4496L74.4034 50.25ZM73.6648 54.3636H70.6648C70.6648 56.3002 70.9495 58.1309 71.6537 59.745L74.4034 58.5455L77.1532 57.3459C76.8725 56.7025 76.6648 55.7453 76.6648 54.3636H73.6648ZM74.4034 58.5455L71.6605 59.7605C72.3586 61.3365 73.4081 62.6829 74.8699 63.6244L76.4943 61.1023L78.1188 58.5801C77.7926 58.3701 77.4482 58.012 77.1464 57.3305L74.4034 58.5455ZM76.4943 61.1023L74.8699 63.6244C76.298 64.5442 77.9085 64.9659 79.5966 64.9659V61.9659V58.9659C78.9362 58.9659 78.4785 58.8118 78.1188 58.5801L76.4943 61.1023ZM79.5966 61.9659V64.9659C80.5211 64.9659 81.4347 64.8434 82.3166 64.5694L81.4261 61.7045L80.5357 58.8397C80.2963 58.9141 79.9903 58.9659 79.5966 58.9659V61.9659ZM81.4261 61.7045L82.3057 64.5727C83.1845 64.3032 84.0095 63.8955 84.7507 63.3333L82.9375 60.9432L81.1243 58.5531C80.9867 58.6575 80.8041 58.7574 80.5466 58.8364L81.4261 61.7045ZM82.9375 60.9432L84.7765 63.3134C85.5173 62.7386 86.1307 62.0399 86.608 61.2362L84.0284 59.7045L81.4488 58.1729C81.3503 58.3389 81.2364 58.4659 81.0985 58.5729L82.9375 60.9432ZM84.0284 59.7045L86.5902 61.2657C87.0972 60.4338 87.4207 59.5274 87.5931 58.5853L84.642 58.0455L81.691 57.5056C81.6361 57.8059 81.5506 58.0056 81.4666 58.1434L84.0284 59.7045ZM84.642 58.0455L84.6283 61.0454L89.6056 61.0682L89.6193 58.0682L89.633 55.0682L84.6557 55.0455L84.642 58.0455ZM89.6193 58.0682L86.6409 57.7091C86.5568 58.4061 86.3468 59.0911 85.9908 59.777L88.6534 61.1591L91.3161 62.5412C91.9904 61.2422 92.4242 59.8666 92.5977 58.4273L89.6193 58.0682ZM88.6534 61.1591L85.9867 59.7847C85.6529 60.4325 85.1948 61.0303 84.5854 61.5808L86.5966 63.8068L88.6078 66.0328C89.7257 65.0228 90.6388 63.8553 91.3201 62.5335L88.6534 61.1591ZM86.5966 63.8068L84.5864 61.5799C84.0325 62.0799 83.3369 62.5093 82.4575 62.8454L83.5284 65.6477L84.5994 68.4501C86.0987 67.8771 87.4486 67.0792 88.6068 66.0338L86.5966 63.8068ZM83.5284 65.6477L82.4672 62.8417C81.6798 63.1395 80.7112 63.3182 79.517 63.3182V66.3182V69.3182C81.3077 69.3182 83.0134 69.0499 84.5897 68.4538L83.5284 65.6477ZM79.517 66.3182V63.3182C77.9115 63.3182 76.5798 62.9602 75.4425 62.3073L73.9489 64.9091L72.4553 67.5108C74.5907 68.7368 76.9711 69.3182 79.517 69.3182V66.3182ZM73.9489 64.9091L75.4477 62.3103C74.3417 61.6724 73.4366 60.7419 72.7338 59.4207L70.0852 60.8295L67.4366 62.2384C68.6278 64.4778 70.2985 66.267 72.45 67.5079L73.9489 64.9091ZM70.0852 60.8295L72.7385 59.4295C72.0779 58.1776 71.6761 56.5288 71.6761 54.3636H68.6761H65.6761C65.6761 57.2591 66.2137 59.9208 67.4319 62.2296L70.0852 60.8295ZM68.6761 54.3636H71.6761C71.6761 52.1961 72.0835 50.5505 72.7519 49.304L70.108 47.8864L67.464 46.4688C66.2233 48.7828 65.6761 51.4554 65.6761 54.3636H68.6761ZM70.108 47.8864L72.7519 49.304C73.4598 47.9836 74.3691 47.0571 75.4788 46.4251L73.9943 43.8182L72.5098 41.2112C70.3468 42.4429 68.6652 44.2285 67.464 46.4688L70.108 47.8864ZM73.9943 43.8182L75.4879 46.4199C76.6319 45.7632 77.9503 45.4091 79.517 45.4091V42.4091V39.4091C76.9929 39.4091 74.6294 39.9944 72.5007 41.2164L73.9943 43.8182ZM79.517 42.4091V45.4091C80.5825 45.4091 81.5126 45.5583 82.3296 45.827L83.267 42.9773L84.2045 40.1275C82.7185 39.6387 81.1485 39.4091 79.517 39.4091V42.4091ZM83.267 42.9773L82.3352 45.8289C83.1649 46.1 83.8613 46.4818 84.4533 46.9635L86.3466 44.6364L88.2399 42.3092C87.044 41.3364 85.6874 40.6121 84.1989 40.1257L83.267 42.9773ZM86.3466 44.6364L84.4653 46.9732C85.0354 47.4322 85.5074 47.9985 85.8845 48.7018L88.5284 47.2841L91.1723 45.8664C90.4282 44.4787 89.4457 43.28 88.2279 42.2996L86.3466 44.6364ZM88.5284 47.2841L85.8925 48.7166C86.2547 49.3829 86.5193 50.2039 86.64 51.2265L89.6193 50.875L92.5987 50.5235C92.4011 48.8491 91.9385 47.2762 91.1643 45.8516L88.5284 47.2841ZM93.1477 66H90.1477V69H93.1477V66ZM93.1477 42.7273V39.7273H90.1477V42.7273H93.1477ZM98.0682 42.7273H101.068V39.7273H98.0682V42.7273ZM98.0682 52.3295H95.0682V55.3295H98.0682V52.3295ZM108.057 52.3295V55.3295H111.057V52.3295H108.057ZM108.057 42.7273V39.7273H105.057V42.7273H108.057ZM112.966 42.7273H115.966V39.7273H112.966V42.7273ZM112.966 66V69H115.966V66H112.966ZM108.057 66H105.057V69H108.057V66ZM108.057 56.3864H111.057V53.3864H108.057V56.3864ZM98.0682 56.3864V53.3864H95.0682V56.3864H98.0682ZM98.0682 66V69H101.068V66H98.0682ZM93.1477 66H96.1477V42.7273H93.1477H90.1477V66H93.1477ZM93.1477 42.7273V45.7273H98.0682V42.7273V39.7273H93.1477V42.7273ZM98.0682 42.7273H95.0682V52.3295H98.0682H101.068V42.7273H98.0682ZM98.0682 52.3295V55.3295H108.057V52.3295V49.3295H98.0682V52.3295ZM108.057 52.3295H111.057V42.7273H108.057H105.057V52.3295H108.057ZM108.057 42.7273V45.7273H112.966V42.7273V39.7273H108.057V42.7273ZM112.966 42.7273H109.966V66H112.966H115.966V42.7273H112.966ZM112.966 66V63H108.057V66V69H112.966V66ZM108.057 66H111.057V56.3864H108.057H105.057V66H108.057ZM108.057 56.3864V53.3864H98.0682V56.3864V59.3864H108.057V56.3864ZM98.0682 56.3864H95.0682V66H98.0682H101.068V56.3864H98.0682ZM98.0682 66V63H93.1477V66V69H98.0682V66ZM121.034 66V69H123.213L123.887 66.9281L121.034 66ZM115.761 66L112.926 65.021L111.552 69H115.761V66ZM123.795 42.7273V39.7273H121.657L120.96 41.7483L123.795 42.7273ZM130.136 42.7273L132.973 41.7496L132.275 39.7273H130.136V42.7273ZM138.159 66V69H142.367L140.995 65.0223L138.159 66ZM132.886 66L130.033 66.9264L130.706 69H132.886V66ZM127.057 48.0455L129.91 47.119L129.237 45.0455H127.057V48.0455ZM126.875 48.0455V45.0455H124.696L124.022 47.1174L126.875 48.0455ZM120.705 56.8523V53.8523H117.705V56.8523H120.705ZM133.159 56.8523H136.159V53.8523H133.159V56.8523ZM133.159 60.6932V63.6932H136.159V60.6932H133.159ZM120.705 60.6932H117.705V63.6932H120.705V60.6932ZM121.034 66V63H115.761V66V69H121.034V66ZM115.761 66L118.597 66.979L126.631 43.7062L123.795 42.7273L120.96 41.7483L112.926 65.021L115.761 66ZM123.795 42.7273V45.7273H130.136V42.7273V39.7273H123.795V42.7273ZM130.136 42.7273L127.3 43.705L135.323 66.9777L138.159 66L140.995 65.0223L132.973 41.7496L130.136 42.7273ZM138.159 66V63H132.886V66V69H138.159V66ZM132.886 66L135.74 65.0736L129.91 47.119L127.057 48.0455L124.203 48.9719L130.033 66.9264L132.886 66ZM127.057 48.0455V45.0455H126.875V48.0455V51.0455H127.057V48.0455ZM126.875 48.0455L124.022 47.1174L118.181 65.0719L121.034 66L123.887 66.9281L129.728 48.9735L126.875 48.0455ZM120.705 56.8523V59.8523H133.159V56.8523V53.8523H120.705V56.8523ZM133.159 56.8523H130.159V60.6932H133.159H136.159V56.8523H133.159ZM133.159 60.6932V57.6932H120.705V60.6932V63.6932H133.159V60.6932ZM120.705 60.6932H123.705V56.8523H120.705H117.705V60.6932H120.705ZM153.054 49.4205L150.069 49.7165L150.337 52.4205H153.054V49.4205ZM147.043 46.8636L148.15 49.6517L148.167 49.6452L148.183 49.6385L147.043 46.8636ZM145.77 47.7841L143.37 45.9841L143.359 45.999L143.348 46.014L145.77 47.7841ZM145.338 49.125L148.336 49.234L148.338 49.1795V49.125H145.338ZM145.599 50.2159L143.038 51.7777L143.052 51.8003L143.066 51.8225L145.599 50.2159ZM146.406 51.0227L144.742 53.5189L144.762 53.5318L144.781 53.5444L146.406 51.0227ZM147.588 51.6023L146.54 54.4132L146.561 54.4211L146.582 54.4286L147.588 51.6023ZM149.02 52.0114L149.718 49.0936L149.696 49.0886L149.675 49.0838L149.02 52.0114ZM151.111 52.5114L150.413 55.4291L150.434 55.4342L150.455 55.4389L151.111 52.5114ZM153.906 53.4205L152.683 56.1599L153.906 53.4205ZM156.111 54.8182L158.106 52.5775H158.106L156.111 54.8182ZM157.554 56.7727L154.823 58.0141L154.828 58.0255L154.833 58.0369L157.554 56.7727ZM158.088 59.3523L161.088 59.3682L161.088 59.3485L161.088 59.3288L158.088 59.3523ZM156.997 63.0568L154.526 61.3557L154.523 61.3595L156.997 63.0568ZM153.906 65.4773L155.077 68.2395L155.084 68.2363L153.906 65.4773ZM144.145 65.4659L142.994 68.2365L143 68.2387L144.145 65.4659ZM140.895 62.9091L138.414 64.596L138.421 64.6055L138.427 64.615L140.895 62.9091ZM139.679 58.6932V55.6932H136.61L136.68 58.761L139.679 58.6932ZM144.44 58.6932L147.433 58.4898L147.243 55.6932H144.44V58.6932ZM145.111 60.6477L142.715 62.4533L142.73 62.4727L142.745 62.492L145.111 60.6477ZM146.713 61.8182L145.604 64.6058L145.623 64.6133L145.642 64.6206L146.713 61.8182ZM151.168 61.8409L150.077 59.0462L150.065 59.0508L151.168 61.8409ZM152.611 60.8295L154.965 62.6885L152.611 60.8295ZM152.656 58.0227L150.372 59.9671L150.383 59.981L150.396 59.9948L152.656 58.0227ZM151.315 57.1136L150.134 59.8711L150.146 59.8765L151.315 57.1136ZM149.168 56.4318L148.437 59.3415L148.451 59.3449L148.465 59.3483L149.168 56.4318ZM146.634 55.7955L147.364 52.8858L147.353 52.8831L147.343 52.8805L146.634 55.7955ZM141.986 53.5568L139.987 55.7941L141.986 53.5568ZM140.293 49.4545L143.293 49.4678L143.293 49.4531L143.293 49.4384L140.293 49.4545ZM141.418 45.7614L138.991 43.9979L138.986 44.0036L138.982 44.0094L141.418 45.7614ZM153.634 43.2955L152.382 46.0221L152.389 46.0249L153.634 43.2955ZM156.656 45.7614L154.179 47.4541V47.4541L156.656 45.7614ZM157.77 49.4205V52.4205H160.819L160.769 49.3713L157.77 49.4205ZM153.054 49.4205L156.039 49.1244C155.872 47.4344 155.092 45.9211 153.662 44.8683L151.884 47.2841L150.105 49.6999C150.115 49.7076 150.11 49.7055 150.098 49.6914C150.092 49.6848 150.086 49.6767 150.079 49.6674C150.073 49.6582 150.067 49.6489 150.062 49.6403C150.052 49.6221 150.05 49.6135 150.053 49.6211C150.055 49.6294 150.063 49.6592 150.069 49.7165L153.054 49.4205ZM151.884 47.2841L153.662 44.8683C152.294 43.8608 150.66 43.5227 149.077 43.5227V46.5227V49.5227C149.857 49.5227 150.094 49.6922 150.105 49.6999L151.884 47.2841ZM149.077 46.5227V43.5227C148.009 43.5227 146.918 43.6713 145.902 44.0888L147.043 46.8636L148.183 49.6385C148.273 49.6014 148.538 49.5227 149.077 49.5227V46.5227ZM147.043 46.8636L145.935 44.0756C144.976 44.4566 144.06 45.0639 143.37 45.9841L145.77 47.7841L148.17 49.5841C148.149 49.6123 148.128 49.6358 148.108 49.6544C148.09 49.6728 148.075 49.6842 148.068 49.6894C148.053 49.6997 148.074 49.6821 148.15 49.6517L147.043 46.8636ZM145.77 47.7841L143.348 46.014C142.675 46.9353 142.338 48.0055 142.338 49.125H145.338H148.338C148.338 49.1669 148.331 49.242 148.302 49.3344C148.272 49.4275 148.23 49.5028 148.192 49.5541L145.77 47.7841ZM145.338 49.125L142.34 49.016C142.307 49.9321 142.5 50.8946 143.038 51.7777L145.599 50.2159L148.161 48.6541C148.234 48.7735 148.282 48.8972 148.309 49.0113C148.336 49.1222 148.337 49.2014 148.336 49.234L145.338 49.125ZM145.599 50.2159L143.066 51.8225C143.512 52.5255 144.092 53.0857 144.742 53.5189L146.406 51.0227L148.07 48.5266C148.052 48.5142 148.055 48.5138 148.07 48.5292C148.086 48.5454 148.109 48.5721 148.133 48.6093L145.599 50.2159ZM146.406 51.0227L144.781 53.5444C145.332 53.8993 145.925 54.184 146.54 54.4132L147.588 51.6023L148.636 48.7913C148.357 48.6872 148.162 48.5855 148.031 48.501L146.406 51.0227ZM147.588 51.6023L146.582 54.4286C147.154 54.6322 147.749 54.8012 148.364 54.9389L149.02 52.0114L149.675 49.0838C149.275 48.9943 148.916 48.8906 148.594 48.776L147.588 51.6023ZM149.02 52.0114L148.322 54.9291L150.413 55.4291L151.111 52.5114L151.809 49.5936L149.718 49.0936L149.02 52.0114ZM151.111 52.5114L150.455 55.4389C151.298 55.6276 152.037 55.8715 152.683 56.1599L153.906 53.4205L155.129 50.681C154.078 50.2118 152.954 49.8497 151.766 49.5838L151.111 52.5114ZM153.906 53.4205L152.683 56.1599C153.283 56.4276 153.75 56.7332 154.116 57.0589L156.111 54.8182L158.106 52.5775C157.229 51.7971 156.226 51.1709 155.129 50.681L153.906 53.4205ZM156.111 54.8182L154.116 57.0589C154.428 57.3365 154.657 57.6487 154.823 58.0141L157.554 56.7727L160.285 55.5313C159.769 54.3968 159.036 53.4059 158.106 52.5775L156.111 54.8182ZM157.554 56.7727L154.833 58.0369C154.973 58.3366 155.083 58.7615 155.088 59.3757L158.088 59.3523L161.088 59.3288C161.078 58.0037 160.832 56.7088 160.275 55.5086L157.554 56.7727ZM158.088 59.3523L155.088 59.3363C155.083 60.2348 154.864 60.8655 154.526 61.3557L156.997 63.0568L159.468 64.7579C160.57 63.1572 161.078 61.3182 161.088 59.3682L158.088 59.3523ZM156.997 63.0568L154.523 61.3595C154.184 61.8545 153.641 62.3286 152.728 62.7182L153.906 65.4773L155.084 68.2363C156.869 67.4744 158.386 66.3349 159.471 64.7541L156.997 63.0568ZM153.906 65.4773L152.736 62.715C151.858 63.0868 150.661 63.3295 149.054 63.3295V66.3295V69.3295C151.235 69.3295 153.272 69.0041 155.077 68.2395L153.906 65.4773ZM149.054 66.3295V63.3295C147.475 63.3295 146.244 63.0869 145.29 62.6931L144.145 65.4659L143 68.2387C144.834 68.9964 146.876 69.3295 149.054 69.3295V66.3295ZM144.145 65.4659L145.296 62.6953C144.389 62.319 143.785 61.8137 143.363 61.2032L140.895 62.9091L138.427 64.615C139.566 66.2621 141.128 67.4613 142.994 68.2365L144.145 65.4659ZM140.895 62.9091L143.376 61.2222C142.993 60.6596 142.706 59.8485 142.678 58.6253L139.679 58.6932L136.68 58.761C136.728 60.8863 137.251 62.8858 138.414 64.596L140.895 62.9091ZM139.679 58.6932V61.6932H144.44V58.6932V55.6932H139.679V58.6932ZM144.44 58.6932L141.447 58.8966C141.532 60.1428 141.907 61.3817 142.715 62.4533L145.111 60.6477L147.507 58.8422C147.507 58.8421 147.506 58.8417 147.506 58.8409C147.505 58.8401 147.504 58.8383 147.503 58.8354C147.5 58.8297 147.493 58.8167 147.485 58.7937C147.47 58.7476 147.444 58.6524 147.433 58.4898L144.44 58.6932ZM145.111 60.6477L142.745 62.492C143.506 63.4684 144.492 64.1635 145.604 64.6058L146.713 61.8182L147.822 59.0306C147.6 58.9425 147.519 58.8573 147.477 58.8035L145.111 60.6477ZM146.713 61.8182L145.642 64.6206C146.713 65.0295 147.846 65.2045 148.997 65.2045V62.2045V59.2045C148.452 59.2045 148.062 59.122 147.784 59.0157L146.713 61.8182ZM148.997 62.2045V65.2045C150.113 65.2045 151.226 65.0433 152.27 64.6311L151.168 61.8409L150.065 59.0508C149.882 59.1234 149.548 59.2045 148.997 59.2045V62.2045ZM151.168 61.8409L152.258 64.6356C153.271 64.2403 154.23 63.6197 154.965 62.6885L152.611 60.8295L150.256 58.9706C150.278 58.9425 150.29 58.937 150.273 58.9495C150.253 58.9636 150.194 59.0005 150.077 59.0462L151.168 61.8409ZM152.611 60.8295L154.965 62.6885C155.733 61.7164 156.122 60.5622 156.122 59.3409H153.122H150.122C150.122 59.3124 150.127 59.2453 150.157 59.1589C150.187 59.0718 150.227 59.0071 150.256 58.9706L152.611 60.8295ZM153.122 59.3409H156.122C156.122 58.1759 155.756 57.0125 154.917 56.0506L152.656 58.0227L150.396 59.9948C150.305 59.8915 150.227 59.7615 150.177 59.6191C150.128 59.4811 150.122 59.3791 150.122 59.3409H153.122ZM152.656 58.0227L154.941 56.0784C154.244 55.259 153.354 54.7187 152.484 54.3507L151.315 57.1136L150.146 59.8765C150.294 59.9391 150.376 59.988 150.41 60.0115C150.444 60.0343 150.42 60.0238 150.372 59.9671L152.656 58.0227ZM151.315 57.1136L152.497 54.3562C151.714 54.0204 150.827 53.7459 149.871 53.5154L149.168 56.4318L148.465 59.3483C149.205 59.5269 149.75 59.7068 150.134 59.8711L151.315 57.1136ZM149.168 56.4318L149.898 53.5222L147.364 52.8858L146.634 55.7955L145.903 58.7051L148.437 59.3415L149.168 56.4318ZM146.634 55.7955L147.343 52.8805C145.709 52.4832 144.653 51.9169 143.984 51.3195L141.986 53.5568L139.987 55.7941C141.591 57.2271 143.633 58.1531 145.924 58.7105L146.634 55.7955ZM141.986 53.5568L143.984 51.3195C143.575 50.9537 143.288 50.4514 143.293 49.4678L140.293 49.4545L137.293 49.4413C137.282 51.8971 138.124 54.1297 139.987 55.7941L141.986 53.5568ZM140.293 49.4545L143.293 49.4384C143.288 48.6058 143.498 48.0066 143.853 47.5134L141.418 45.7614L138.982 44.0094C137.822 45.6222 137.282 47.4851 137.293 49.4707L140.293 49.4545ZM141.418 45.7614L143.845 47.5248C144.263 46.9489 144.871 46.4414 145.781 46.0382L144.565 43.2955L143.35 40.5527C141.593 41.3314 140.102 42.4678 138.991 43.9979L141.418 45.7614ZM144.565 43.2955L145.781 46.0382C146.674 45.6424 147.765 45.4091 149.111 45.4091V42.4091V39.4091C147.063 39.4091 145.123 39.7667 143.35 40.5527L144.565 43.2955ZM149.111 42.4091V45.4091C150.499 45.4091 151.563 45.6463 152.382 46.0221L153.634 43.2955L154.885 40.5688C153.128 39.7628 151.177 39.4091 149.111 39.4091V42.4091ZM153.634 43.2955L152.389 46.0249C153.246 46.4161 153.803 46.9035 154.179 47.4541L156.656 45.7614L159.133 44.0686C158.07 42.5132 156.612 41.3567 154.879 40.566L153.634 43.2955ZM156.656 45.7614L154.179 47.4541C154.539 47.98 154.756 48.6171 154.77 49.4696L157.77 49.4205L160.769 49.3713C160.738 47.4511 160.213 45.6488 159.133 44.0686L156.656 45.7614ZM157.77 49.4205V46.4205H153.054V49.4205V52.4205H157.77V49.4205ZM161.398 66H158.398V69H161.398V66ZM161.398 42.7273V39.7273H158.398V42.7273H161.398ZM177.08 42.7273H180.08V39.7273H177.08V42.7273ZM177.08 46.7841V49.7841H180.08V46.7841H177.08ZM166.318 46.7841V43.7841H163.318V46.7841H166.318ZM166.318 52.3295H163.318V55.3295H166.318V52.3295ZM176.273 52.3295H179.273V49.3295H176.273V52.3295ZM176.273 56.3864V59.3864H179.273V56.3864H176.273ZM166.318 56.3864V53.3864H163.318V56.3864H166.318ZM166.318 61.9432H163.318V64.9432H166.318V61.9432ZM177.125 61.9432H180.125V58.9432H177.125V61.9432ZM177.125 66V69H180.125V66H177.125ZM161.398 66H164.398V42.7273H161.398H158.398V66H161.398ZM161.398 42.7273V45.7273H177.08V42.7273V39.7273H161.398V42.7273ZM177.08 42.7273H174.08V46.7841H177.08H180.08V42.7273H177.08ZM177.08 46.7841V43.7841H166.318V46.7841V49.7841H177.08V46.7841ZM166.318 46.7841H163.318V52.3295H166.318H169.318V46.7841H166.318ZM166.318 52.3295V55.3295H176.273V52.3295V49.3295H166.318V52.3295ZM176.273 52.3295H173.273V56.3864H176.273H179.273V52.3295H176.273ZM176.273 56.3864V53.3864H166.318V56.3864V59.3864H176.273V56.3864ZM166.318 56.3864H163.318V61.9432H166.318H169.318V56.3864H166.318ZM166.318 61.9432V64.9432H177.125V61.9432V58.9432H166.318V61.9432ZM177.125 61.9432H174.125V66H177.125H180.125V61.9432H177.125ZM177.125 66V63H161.398V66V69H177.125V66ZM180.991 66H177.991V69H180.991V66ZM180.991 42.7273V39.7273H177.991V42.7273H180.991ZM195.355 44.125L193.906 46.7519L193.915 46.7569L195.355 44.125ZM199.253 48.1136L196.596 49.5061L196.6 49.5152L199.253 48.1136ZM199.253 60.5909L196.598 59.1941L196.593 59.2032L199.253 60.5909ZM195.332 64.6023L193.893 61.9699L193.888 61.9726L195.332 64.6023ZM185.912 61.7841H182.912V64.7841H185.912V61.7841ZM192.707 61.0114L194.09 63.674L194.097 63.67L192.707 61.0114ZM194.957 58.5909L192.234 57.3325L192.23 57.3409L194.957 58.5909ZM194.957 50.125L192.23 51.375L192.234 51.3828L192.237 51.3906L194.957 50.125ZM192.719 47.7159L194.101 45.0533L192.719 47.7159ZM185.912 46.9432V43.9432H182.912V46.9432H185.912ZM189.241 66V63H180.991V66V69H189.241V66ZM180.991 66H183.991V42.7273H180.991H177.991V66H180.991ZM180.991 42.7273V45.7273H189.31V42.7273V39.7273H180.991V42.7273ZM189.31 42.7273V45.7273C191.251 45.7273 192.746 46.1119 193.906 46.7519L195.355 44.125L196.804 41.4981C194.586 40.2744 192.05 39.7273 189.31 39.7273V42.7273ZM195.355 44.125L193.915 46.7569C195.076 47.392 195.956 48.2859 196.596 49.5061L199.253 48.1136L201.91 46.7212C200.731 44.4717 199.013 42.7065 196.795 41.4931L195.355 44.125ZM199.253 48.1136L196.6 49.5152C197.242 50.7292 197.628 52.3012 197.628 54.3409H200.628H203.628C203.628 51.5473 203.097 48.9678 201.905 46.7121L199.253 48.1136ZM200.628 54.3409H197.628C197.628 56.3894 197.241 57.9709 196.598 59.1941L199.253 60.5909L201.908 61.9877C203.098 59.726 203.628 57.1409 203.628 54.3409H200.628ZM199.253 60.5909L196.593 59.2032C195.955 60.4256 195.07 61.3265 193.893 61.9699L195.332 64.6023L196.771 67.2346C199.004 66.0144 200.732 64.2411 201.913 61.9786L199.253 60.5909ZM195.332 64.6023L193.888 61.9726C192.722 62.6133 191.211 63 189.241 63V66V69C191.999 69 194.549 68.4549 196.776 67.2319L195.332 64.6023ZM185.912 61.7841V64.7841H189.037V61.7841V58.7841H185.912V61.7841ZM189.037 61.7841V64.7841C190.833 64.7841 192.561 64.4674 194.09 63.674L192.707 61.0114L191.325 58.3487C190.869 58.5857 190.15 58.7841 189.037 58.7841V61.7841ZM192.707 61.0114L194.097 63.67C195.726 62.8188 196.926 61.4956 197.685 59.8409L194.957 58.5909L192.23 57.3409C191.989 57.868 191.689 58.1585 191.318 58.3527L192.707 61.0114ZM194.957 58.5909L197.681 59.8493C198.432 58.2237 198.719 56.3357 198.719 54.3409H195.719H192.719C192.719 55.8158 192.498 56.7611 192.234 57.3325L194.957 58.5909ZM195.719 54.3409H198.719C198.719 52.3582 198.431 50.4791 197.677 48.8594L194.957 50.125L192.237 51.3906C192.499 51.9528 192.719 52.8843 192.719 54.3409H195.719ZM194.957 50.125L197.685 48.875C196.928 47.2241 195.731 45.8996 194.101 45.0533L192.719 47.7159L191.337 50.3786C191.691 50.5625 191.987 50.8441 192.23 51.375L194.957 50.125ZM192.719 47.7159L194.101 45.0533C192.573 44.2599 190.844 43.9432 189.048 43.9432V46.9432V49.9432C190.162 49.9432 190.88 50.1416 191.337 50.3786L192.719 47.7159ZM189.048 46.9432V43.9432H185.912V46.9432V49.9432H189.048V46.9432ZM185.912 46.9432H182.912V61.7841H185.912H188.912V46.9432H185.912ZM3.13636 85.7841H0.136364V88.7841H3.13636V85.7841ZM3.13636 81.7273V78.7273H0.136364V81.7273H3.13636ZM22.25 81.7273H25.25V78.7273H22.25V81.7273ZM22.25 85.7841V88.7841H25.25V85.7841H22.25ZM15.125 85.7841V82.7841H12.125V85.7841H15.125ZM15.125 105V108H18.125V105H15.125ZM10.2614 105H7.26136V108H10.2614V105ZM10.2614 85.7841H13.2614V82.7841H10.2614V85.7841ZM3.13636 85.7841H6.13636V81.7273H3.13636H0.136364V85.7841H3.13636ZM3.13636 81.7273V84.7273H22.25V81.7273V78.7273H3.13636V81.7273ZM22.25 81.7273H19.25V85.7841H22.25H25.25V81.7273H22.25ZM22.25 85.7841V82.7841H15.125V85.7841V88.7841H22.25V85.7841ZM15.125 85.7841H12.125V105H15.125H18.125V85.7841H15.125ZM15.125 105V102H10.2614V105V108H15.125V105ZM10.2614 105H13.2614V85.7841H10.2614H7.26136V105H10.2614ZM10.2614 85.7841V82.7841H3.13636V85.7841V88.7841H10.2614V85.7841ZM35.2131 91.4432H38.2131V88.4432H35.2131V91.4432ZM35.2131 95.2841V98.2841H38.2131V95.2841H35.2131ZM24.5994 95.2841H21.5994V98.2841H24.5994V95.2841ZM24.5994 91.4432V88.4432H21.5994V91.4432H24.5994ZM35.2131 91.4432H32.2131V95.2841H35.2131H38.2131V91.4432H35.2131ZM35.2131 95.2841V92.2841H24.5994V95.2841V98.2841H35.2131V95.2841ZM24.5994 95.2841H27.5994V91.4432H24.5994H21.5994V95.2841H24.5994ZM24.5994 91.4432V94.4432H35.2131V91.4432V88.4432H24.5994V91.4432ZM52.054 88.4205L49.0686 88.7165L49.3368 91.4205H52.054V88.4205ZM46.0426 85.8636L47.1502 88.6517L47.1666 88.6452L47.183 88.6385L46.0426 85.8636ZM44.7699 86.7841L42.3699 84.9841L42.3587 84.999L42.3477 85.014L44.7699 86.7841ZM44.3381 88.125L47.3361 88.234L47.3381 88.1795V88.125H44.3381ZM44.5994 89.2159L42.038 90.7777L42.0518 90.8003L42.0659 90.8225L44.5994 89.2159ZM45.4062 90.0227L43.7421 92.5189L43.7616 92.5318L43.7811 92.5444L45.4062 90.0227ZM46.5881 90.6023L45.5399 93.4132L45.5609 93.4211L45.5821 93.4286L46.5881 90.6023ZM48.0199 91.0114L48.7176 88.0936L48.6965 88.0886L48.6753 88.0838L48.0199 91.0114ZM50.1108 91.5114L49.4131 94.4291L49.4342 94.4342L49.4554 94.4389L50.1108 91.5114ZM52.9062 92.4205L51.6833 95.1599L52.9062 92.4205ZM55.1108 93.8182L57.1056 91.5775L55.1108 93.8182ZM56.554 95.7727L53.8229 97.0141L53.8281 97.0255L53.8333 97.0369L56.554 95.7727ZM57.0881 98.3523L60.088 98.3682L60.0881 98.3485L60.088 98.3288L57.0881 98.3523ZM55.9972 102.057L53.5261 100.356L53.5235 100.36L55.9972 102.057ZM52.9062 104.477L54.0767 107.24L54.0843 107.236L52.9062 104.477ZM43.1449 104.466L41.9943 107.236L41.9996 107.239L43.1449 104.466ZM39.8949 101.909L37.4141 103.596L37.4206 103.606L37.4271 103.615L39.8949 101.909ZM38.679 97.6932V94.6932H35.6103L35.6797 97.761L38.679 97.6932ZM43.4403 97.6932L46.4334 97.4898L46.2434 94.6932H43.4403V97.6932ZM44.1108 99.6477L41.715 101.453L41.7296 101.473L41.7446 101.492L44.1108 99.6477ZM45.7131 100.818L44.6044 103.606L44.6234 103.613L44.6425 103.621L45.7131 100.818ZM50.1676 100.841L49.077 98.0462L49.0653 98.0508L50.1676 100.841ZM51.6108 99.8295L53.9654 101.688L51.6108 99.8295ZM51.6562 97.0227L49.3716 98.9671L49.3835 98.981L49.3955 98.9948L51.6562 97.0227ZM50.3153 96.1136L49.1336 98.8711L49.1464 98.8765L50.3153 96.1136ZM48.1676 95.4318L47.4369 98.3415L47.4507 98.3449L47.4645 98.3483L48.1676 95.4318ZM45.6335 94.7955L46.3642 91.8858L46.3534 91.8831L46.3426 91.8804L45.6335 94.7955ZM40.9858 92.5568L38.9872 94.7941V94.7941L40.9858 92.5568ZM39.2926 88.4545L42.2926 88.4678L42.2926 88.4531L42.2926 88.4384L39.2926 88.4545ZM40.4176 84.7614L37.9907 82.9979L37.9865 83.0036L37.9823 83.0094L40.4176 84.7614ZM52.6335 82.2955L51.3825 85.0221L51.3885 85.0249L52.6335 82.2955ZM55.6562 84.7614L53.1795 86.4541L55.6562 84.7614ZM56.7699 88.4205V91.4205H59.8195L59.7695 88.3713L56.7699 88.4205ZM52.054 88.4205L55.0393 88.1244C54.8717 86.4344 54.0923 84.9212 52.6622 83.8683L50.8835 86.2841L49.1048 88.6999C49.1153 88.7076 49.1104 88.7055 49.098 88.6914C49.0921 88.6848 49.0857 88.6767 49.0791 88.6674C49.0726 88.6582 49.0669 88.6489 49.0622 88.6403C49.0522 88.6221 49.0503 88.6135 49.0526 88.6211C49.055 88.6294 49.0629 88.6592 49.0686 88.7165L52.054 88.4205ZM50.8835 86.2841L52.6622 83.8683C51.2939 82.8608 49.6602 82.5227 48.0767 82.5227V85.5227V88.5227C48.8568 88.5227 49.0944 88.6922 49.1048 88.6999L50.8835 86.2841ZM48.0767 85.5227V82.5227C47.009 82.5227 45.9181 82.6713 44.9023 83.0888L46.0426 85.8636L47.183 88.6385C47.2732 88.6014 47.5384 88.5227 48.0767 88.5227V85.5227ZM46.0426 85.8636L44.935 83.0756C43.9759 83.4566 43.0601 84.0639 42.3699 84.9841L44.7699 86.7841L47.1699 88.5841C47.1487 88.6123 47.1276 88.6358 47.1085 88.6544C47.0895 88.6728 47.075 88.6842 47.0677 88.6894C47.0534 88.6997 47.0737 88.6821 47.1502 88.6517L46.0426 85.8636ZM44.7699 86.7841L42.3477 85.014C41.6745 85.9353 41.3381 87.0055 41.3381 88.125H44.3381H47.3381C47.3381 88.1669 47.3313 88.242 47.3016 88.3344C47.2716 88.4275 47.2296 88.5028 47.1921 88.5541L44.7699 86.7841ZM44.3381 88.125L41.34 88.016C41.3067 88.9321 41.4995 89.8946 42.038 90.7777L44.5994 89.2159L47.1608 87.6541C47.2336 87.7735 47.2822 87.8972 47.3095 88.0113C47.3361 88.1222 47.3373 88.2014 47.3361 88.234L44.3381 88.125ZM44.5994 89.2159L42.0659 90.8225C42.5117 91.5255 43.0924 92.0857 43.7421 92.5189L45.4062 90.0227L47.0704 87.5266C47.0517 87.5142 47.0547 87.5137 47.0702 87.5293C47.0863 87.5454 47.1094 87.5722 47.133 87.6093L44.5994 89.2159ZM45.4062 90.0227L43.7811 92.5444C44.3318 92.8993 44.9252 93.184 45.5399 93.4132L46.5881 90.6023L47.6362 87.7913C47.357 87.6872 47.1625 87.5855 47.0314 87.501L45.4062 90.0227ZM46.5881 90.6023L45.5821 93.4286C46.1541 93.6322 46.7493 93.8012 47.3645 93.9389L48.0199 91.0114L48.6753 88.0838C48.2753 87.9943 47.916 87.8906 47.594 87.776L46.5881 90.6023ZM48.0199 91.0114L47.3222 93.9291L49.4131 94.4291L50.1108 91.5114L50.8085 88.5936L48.7176 88.0936L48.0199 91.0114ZM50.1108 91.5114L49.4554 94.4389C50.2983 94.6276 51.0374 94.8715 51.6833 95.1599L52.9062 92.4205L54.1292 89.681C53.0781 89.2118 51.9536 88.8497 50.7662 88.5838L50.1108 91.5114ZM52.9062 92.4205L51.6833 95.1599C52.283 95.4276 52.7502 95.7332 53.116 96.0589L55.1108 93.8182L57.1056 91.5775C56.229 90.7971 55.2265 90.1709 54.1292 89.681L52.9062 92.4205ZM55.1108 93.8182L53.116 96.0589C53.4279 96.3365 53.6568 96.6487 53.8229 97.0141L56.554 95.7727L59.2851 94.5313C58.7694 93.3968 58.0361 92.4059 57.1056 91.5775L55.1108 93.8182ZM56.554 95.7727L53.8333 97.0369C53.9726 97.3366 54.0834 97.7615 54.0882 98.3757L57.0881 98.3523L60.088 98.3288C60.0776 97.0037 59.8323 95.7088 59.2746 94.5086L56.554 95.7727ZM57.0881 98.3523L54.0881 98.3363C54.0833 99.2348 53.8635 99.8655 53.5261 100.356L55.9972 102.057L58.4682 103.758C59.5702 102.157 60.0777 100.318 60.088 98.3682L57.0881 98.3523ZM55.9972 102.057L53.5235 100.36C53.1838 100.854 52.6408 101.329 51.7282 101.718L52.9062 104.477L54.0843 107.236C55.8686 106.474 57.3862 105.335 58.4709 103.754L55.9972 102.057ZM52.9062 104.477L51.7358 101.715C50.8583 102.087 49.6611 102.33 48.054 102.33V105.33V108.33C50.2347 108.33 52.2723 108.004 54.0767 107.24L52.9062 104.477ZM48.054 105.33V102.33C46.4748 102.33 45.2436 102.087 44.2902 101.693L43.1449 104.466L41.9996 107.239C43.8341 107.996 45.8756 108.33 48.054 108.33V105.33ZM43.1449 104.466L44.2955 101.695C43.3894 101.319 42.7847 100.814 42.3627 100.203L39.8949 101.909L37.4271 103.615C38.5657 105.262 40.1277 106.461 41.9943 107.236L43.1449 104.466ZM39.8949 101.909L42.3757 100.222C41.9932 99.6596 41.7059 98.8485 41.6782 97.6253L38.679 97.6932L35.6797 97.761C35.7278 99.8863 36.2512 101.886 37.4141 103.596L39.8949 101.909ZM38.679 97.6932V100.693H43.4403V97.6932V94.6932H38.679V97.6932ZM43.4403 97.6932L40.4472 97.8966C40.5319 99.1428 40.9074 100.382 41.715 101.453L44.1108 99.6477L46.5066 97.8422C46.5065 97.8421 46.5063 97.8417 46.5058 97.8409C46.5053 97.8401 46.5042 97.8383 46.5026 97.8354C46.4996 97.8297 46.4933 97.8167 46.4854 97.7936C46.4696 97.7476 46.4445 97.6524 46.4334 97.4898L43.4403 97.6932ZM44.1108 99.6477L41.7446 101.492C42.5057 102.468 43.4923 103.164 44.6044 103.606L45.7131 100.818L46.8218 98.0306C46.6005 97.9426 46.5189 97.8573 46.477 97.8035L44.1108 99.6477ZM45.7131 100.818L44.6425 103.621C45.7128 104.03 46.8457 104.205 47.9972 104.205V101.205V98.2045C47.4516 98.2045 47.0618 98.122 46.7837 98.0157L45.7131 100.818ZM47.9972 101.205V104.205C49.1125 104.205 50.2264 104.043 51.2699 103.631L50.1676 100.841L49.0653 98.0508C48.8816 98.1234 48.5484 98.2045 47.9972 98.2045V101.205ZM50.1676 100.841L51.2582 103.636C52.2712 103.24 53.2303 102.62 53.9654 101.688L51.6108 99.8295L49.2561 97.9706C49.2783 97.9425 49.2904 97.937 49.2726 97.9495C49.2525 97.9636 49.194 98.0005 49.077 98.0462L50.1676 100.841ZM51.6108 99.8295L53.9654 101.688C54.7329 100.716 55.1222 99.5622 55.1222 98.3409H52.1222H49.1222C49.1222 98.3124 49.1274 98.2453 49.1571 98.1589C49.187 98.0718 49.2273 98.0071 49.2561 97.9706L51.6108 99.8295ZM52.1222 98.3409H55.1222C55.1222 97.1759 54.756 96.0125 53.917 95.0506L51.6562 97.0227L49.3955 98.9948C49.3054 98.8915 49.2275 98.7615 49.1772 98.6191C49.1284 98.4811 49.1222 98.3791 49.1222 98.3409H52.1222ZM51.6562 97.0227L53.9409 95.0784C53.2435 94.259 52.354 93.7187 51.4843 93.3507L50.3153 96.1136L49.1464 98.8765C49.2942 98.9391 49.3756 98.988 49.4103 99.0115C49.4438 99.0343 49.4199 99.0238 49.3716 98.9671L51.6562 97.0227ZM50.3153 96.1136L51.4971 93.3562C50.7137 93.0204 49.8268 92.7459 48.8707 92.5154L48.1676 95.4318L47.4645 98.3483C48.2054 98.5269 48.7504 98.7068 49.1336 98.8711L50.3153 96.1136ZM48.1676 95.4318L48.8983 92.5222L46.3642 91.8858L45.6335 94.7955L44.9028 97.7051L47.4369 98.3415L48.1676 95.4318ZM45.6335 94.7955L46.3426 91.8804C44.7095 91.4832 43.6531 90.9169 42.9844 90.3195L40.9858 92.5568L38.9872 94.7941C40.5912 96.2271 42.6333 97.1531 44.9245 97.7105L45.6335 94.7955ZM40.9858 92.5568L42.9844 90.3195C42.5749 89.9537 42.2882 89.4514 42.2926 88.4678L39.2926 88.4545L36.2926 88.4413C36.2818 90.8971 37.124 93.1297 38.9872 94.7941L40.9858 92.5568ZM39.2926 88.4545L42.2926 88.4384C42.2881 87.6058 42.4981 87.0066 42.8529 86.5134L40.4176 84.7614L37.9823 83.0094C36.822 84.6222 36.282 86.4851 36.2927 88.4707L39.2926 88.4545ZM40.4176 84.7614L42.8446 86.5248C43.2631 85.9489 43.8711 85.4414 44.7809 85.0382L43.5653 82.2955L42.3498 79.5527C40.5929 80.3314 39.1025 81.4678 37.9907 82.9979L40.4176 84.7614ZM43.5653 82.2955L44.7809 85.0382C45.6739 84.6424 46.7646 84.4091 48.1108 84.4091V81.4091V78.4091C46.063 78.4091 44.1235 78.7667 42.3498 79.5527L43.5653 82.2955ZM48.1108 81.4091V84.4091C49.4988 84.4091 50.5633 84.6463 51.3825 85.0221L52.6335 82.2955L53.8846 79.5688C52.128 78.7628 50.1773 78.4091 48.1108 78.4091V81.4091ZM52.6335 82.2955L51.3885 85.0249C52.246 85.4161 52.8031 85.9035 53.1795 86.4541L55.6562 84.7614L58.133 83.0686C57.07 81.5132 55.6119 80.3567 53.8785 79.566L52.6335 82.2955ZM55.6562 84.7614L53.1795 86.4541C53.5389 86.98 53.7563 87.6171 53.7703 88.4696L56.7699 88.4205L59.7695 88.3713C59.738 86.4511 59.213 84.6488 58.133 83.0686L55.6562 84.7614ZM56.7699 88.4205V85.4205H52.054V88.4205V91.4205H56.7699V88.4205ZM60.3977 105H57.3977V108H60.3977V105ZM60.3977 81.7273V78.7273H57.3977V81.7273H60.3977ZM65.3182 81.7273H68.3182V78.7273H65.3182V81.7273ZM65.3182 91.3295H62.3182V94.3295H65.3182V91.3295ZM75.3068 91.3295V94.3295H78.3068V91.3295H75.3068ZM75.3068 81.7273V78.7273H72.3068V81.7273H75.3068ZM80.2159 81.7273H83.2159V78.7273H80.2159V81.7273ZM80.2159 105V108H83.2159V105H80.2159ZM75.3068 105H72.3068V108H75.3068V105ZM75.3068 95.3864H78.3068V92.3864H75.3068V95.3864ZM65.3182 95.3864V92.3864H62.3182V95.3864H65.3182ZM65.3182 105V108H68.3182V105H65.3182ZM60.3977 105H63.3977V81.7273H60.3977H57.3977V105H60.3977ZM60.3977 81.7273V84.7273H65.3182V81.7273V78.7273H60.3977V81.7273ZM65.3182 81.7273H62.3182V91.3295H65.3182H68.3182V81.7273H65.3182ZM65.3182 91.3295V94.3295H75.3068V91.3295V88.3295H65.3182V91.3295ZM75.3068 91.3295H78.3068V81.7273H75.3068H72.3068V91.3295H75.3068ZM75.3068 81.7273V84.7273H80.2159V81.7273V78.7273H75.3068V81.7273ZM80.2159 81.7273H77.2159V105H80.2159H83.2159V81.7273H80.2159ZM80.2159 105V102H75.3068V105V108H80.2159V105ZM75.3068 105H78.3068V95.3864H75.3068H72.3068V105H75.3068ZM75.3068 95.3864V92.3864H65.3182V95.3864V98.3864H75.3068V95.3864ZM65.3182 95.3864H62.3182V105H65.3182H68.3182V95.3864H65.3182ZM65.3182 105V102H60.3977V105V108H65.3182V105ZM89.1932 81.7273H92.1932V78.7273H89.1932V81.7273ZM89.1932 105V108H92.1932V105H89.1932ZM84.2727 105H81.2727V108H84.2727V105ZM84.2727 81.7273V78.7273H81.2727V81.7273H84.2727ZM89.1932 81.7273H86.1932V105H89.1932H92.1932V81.7273H89.1932ZM89.1932 105V102H84.2727V105V108H89.1932V105ZM84.2727 105H87.2727V81.7273H84.2727H81.2727V105H84.2727ZM84.2727 81.7273V84.7273H89.1932V81.7273V78.7273H84.2727V81.7273ZM93.2415 105H90.2415V108H93.2415V105ZM93.2415 81.7273V78.7273H90.2415V81.7273H93.2415ZM106.923 82.6705L105.569 85.3472L105.578 85.3521L105.588 85.357L106.923 82.6705ZM109.776 85.3182L107.169 86.8029L107.175 86.8131L107.18 86.8233L109.776 85.3182ZM109.764 93.3182L112.334 94.8669L112.338 94.8591L109.764 93.3182ZM106.866 95.8636L105.597 93.1455L105.591 93.1484L106.866 95.8636ZM96.1506 96.75H93.1506V99.75H96.1506V96.75ZM96.1506 92.7955V89.7955H93.1506V92.7955H96.1506ZM103.844 92.4091L104.993 95.1803H104.993L103.844 92.4091ZM105.23 91.25L102.661 89.701L102.653 89.7149L102.644 89.7289L105.23 91.25ZM105.23 87.375L102.625 88.8634L102.633 88.8774L102.641 88.8912L105.23 87.375ZM103.832 86.1705L102.599 88.905L102.619 88.914L102.639 88.9227L103.832 86.1705ZM98.1619 85.75V82.75H95.1619V85.75H98.1619ZM98.1619 105V108H101.162V105H98.1619ZM105.81 94.4091L108.443 92.9711L107.589 91.4091H105.81V94.4091ZM111.594 105V108H116.65L114.227 103.562L111.594 105ZM106.162 105L103.516 106.414L104.364 108H106.162V105ZM100.503 94.4091V91.4091H95.4984L97.8569 95.8229L100.503 94.4091ZM93.2415 105H96.2415V81.7273H93.2415H90.2415V105H93.2415ZM93.2415 81.7273V84.7273H102.423V81.7273V78.7273H93.2415V81.7273ZM102.423 81.7273V84.7273C103.83 84.7273 104.842 84.9793 105.569 85.3472L106.923 82.6705L108.278 79.9937C106.52 79.104 104.531 78.7273 102.423 78.7273V81.7273ZM106.923 82.6705L105.588 85.357C106.338 85.7297 106.83 86.209 107.169 86.8029L109.776 85.3182L112.382 83.8335C111.418 82.1395 110.008 80.8536 108.258 79.9839L106.923 82.6705ZM109.776 85.3182L107.18 86.8233C107.532 87.4296 107.764 88.2293 107.764 89.3295H110.764H113.764C113.764 87.3541 113.337 85.4795 112.371 83.813L109.776 85.3182ZM110.764 89.3295H107.764C107.764 90.4365 107.529 91.2112 107.19 91.7773L109.764 93.3182L112.338 94.8591C113.333 93.1979 113.764 91.3135 113.764 89.3295H110.764ZM109.764 93.3182L107.195 91.7695C106.861 92.3236 106.368 92.7853 105.597 93.1455L106.866 95.8636L108.136 98.5818C109.895 97.7602 111.334 96.5249 112.334 94.8668L109.764 93.3182ZM106.866 95.8636L105.591 93.1484C104.83 93.5061 103.767 93.75 102.298 93.75V96.75V99.75C104.405 99.75 106.388 99.403 108.142 98.5788L106.866 95.8636ZM102.298 96.75V93.75H96.1506V96.75V99.75H102.298V96.75ZM96.1506 96.75H99.1506V92.7955H96.1506H93.1506V96.75H96.1506ZM96.1506 92.7955V95.7955H101.503V92.7955V89.7955H96.1506V92.7955ZM101.503 92.7955V95.7955C102.691 95.7955 103.893 95.6361 104.993 95.1803L103.844 92.4091L102.695 89.6379C102.552 89.6972 102.193 89.7955 101.503 89.7955V92.7955ZM103.844 92.4091L104.993 95.1803C106.137 94.7059 107.142 93.9175 107.816 92.7711L105.23 91.25L102.644 89.7289C102.655 89.711 102.669 89.6909 102.686 89.6709C102.703 89.651 102.719 89.6355 102.732 89.6246C102.759 89.6016 102.757 89.6121 102.695 89.6379L103.844 92.4091ZM105.23 91.25L107.799 92.799C108.459 91.7051 108.696 90.4942 108.696 89.3295H105.696H102.696C102.696 89.6952 102.623 89.7646 102.661 89.701L105.23 91.25ZM105.696 89.3295H108.696C108.696 88.1593 108.46 86.9532 107.819 85.8588L105.23 87.375L102.641 88.8912C102.622 88.8574 102.696 88.9544 102.696 89.3295H105.696ZM105.23 87.375L107.835 85.8866C107.171 84.7256 106.173 83.9157 105.026 83.4182L103.832 86.1705L102.639 88.9227C102.673 88.9378 102.693 88.9489 102.7 88.9535C102.707 88.958 102.704 88.9569 102.695 88.9487C102.685 88.9403 102.672 88.9276 102.658 88.9108C102.645 88.8941 102.633 88.8775 102.625 88.8634L105.23 87.375ZM103.832 86.1705L105.066 83.4359C103.937 82.9265 102.697 82.75 101.48 82.75V85.75V88.75C102.157 88.75 102.485 88.8538 102.599 88.905L103.832 86.1705ZM101.48 85.75V82.75H98.1619V85.75V88.75H101.48V85.75ZM98.1619 85.75H95.1619V105H98.1619H101.162V85.75H98.1619ZM98.1619 105V102H93.2415V105V108H98.1619V105ZM105.81 94.4091L103.177 95.847L108.961 106.438L111.594 105L114.227 103.562L108.443 92.9711L105.81 94.4091ZM111.594 105V102H106.162V105V108H111.594V105ZM106.162 105L108.808 103.586L103.149 92.9953L100.503 94.4091L97.8569 95.8229L103.516 106.414L106.162 105ZM100.503 94.4091V97.4091H105.81V94.4091V91.4091H100.503V94.4091ZM113.355 85.7841H110.355V88.7841H113.355V85.7841ZM113.355 81.7273V78.7273H110.355V81.7273H113.355ZM132.469 81.7273H135.469V78.7273H132.469V81.7273ZM132.469 85.7841V88.7841H135.469V85.7841H132.469ZM125.344 85.7841V82.7841H122.344V85.7841H125.344ZM125.344 105V108H128.344V105H125.344ZM120.48 105H117.48V108H120.48V105ZM120.48 85.7841H123.48V82.7841H120.48V85.7841ZM113.355 85.7841H116.355V81.7273H113.355H110.355V85.7841H113.355ZM113.355 81.7273V84.7273H132.469V81.7273V78.7273H113.355V81.7273ZM132.469 81.7273H129.469V85.7841H132.469H135.469V81.7273H132.469ZM132.469 85.7841V82.7841H125.344V85.7841V88.7841H132.469V85.7841ZM125.344 85.7841H122.344V105H125.344H128.344V85.7841H125.344ZM125.344 105V102H120.48V105V108H125.344V105ZM120.48 105H123.48V85.7841H120.48H117.48V105H120.48ZM120.48 85.7841V82.7841H113.355V85.7841V88.7841H120.48V85.7841Z" fill="white" mask="url(#path-1-outside-1_75_449)"/>
</svg>
