<svg width="573" height="545" viewBox="0 0 573 545" fill="none" xmlns="http://www.w3.org/2000/svg">
<g filter="url(#filter0_d_195_835)">
<path d="M280.697 7.66707C281.897 3.98662 287.103 3.98662 288.303 7.66707L352.606 204.935H560.657C564.535 204.935 566.144 209.9 563.003 212.175L394.697 334.065L458.991 531.307C460.192 534.99 455.979 538.058 452.842 535.786L284.5 413.871L116.158 535.786C113.021 538.058 108.808 534.99 110.009 531.307L174.303 334.065L5.99658 212.175C2.85574 209.9 4.46477 204.935 8.34278 204.935H216.394L280.697 7.66707Z" fill="#FFD600"/>
<path d="M290.205 7.04725C288.405 1.52654 280.595 1.52658 278.795 7.04723L214.943 202.935H8.34278C2.52576 202.935 0.112224 210.383 4.82348 213.795L171.95 334.83L108.107 530.687C106.306 536.212 112.625 540.814 117.331 537.406L284.5 416.34L451.669 537.406C456.375 540.814 462.694 536.212 460.893 530.687L397.05 334.83L564.177 213.795C568.888 210.383 566.474 202.935 560.657 202.935H354.057L290.205 7.04725Z" stroke="black" stroke-width="4"/>
</g>
<defs>
<filter id="filter0_d_195_835" x="0.327393" y="0.906738" width="572.345" height="543.676" filterUnits="userSpaceOnUse" color-interpolation-filters="sRGB">
<feFlood flood-opacity="0" result="BackgroundImageFix"/>
<feColorMatrix in="SourceAlpha" type="matrix" values="0 0 0 0 0 0 0 0 0 0 0 0 0 0 0 0 0 0 127 0" result="hardAlpha"/>
<feOffset dx="4" dy="4"/>
<feComposite in2="hardAlpha" operator="out"/>
<feColorMatrix type="matrix" values="0 0 0 0 0 0 0 0 0 0 0 0 0 0 0 0 0 0 1 0"/>
<feBlend mode="normal" in2="BackgroundImageFix" result="effect1_dropShadow_195_835"/>
<feBlend mode="normal" in="SourceGraphic" in2="effect1_dropShadow_195_835" result="shape"/>
</filter>
</defs>
</svg>
