<svg width="170" height="170" viewBox="0 0 170 170" fill="none" xmlns="http://www.w3.org/2000/svg">
<mask id="mask0_147_675" style="mask-type:luminance" maskUnits="userSpaceOnUse" x="0" y="0" width="170" height="170">
<path d="M170 85C170 38.0558 131.944 0 85 0C38.0558 0 0 38.0558 0 85C0 131.944 38.0558 170 85 170C131.944 170 170 131.944 170 85Z" fill="white"/>
</mask>
<g mask="url(#mask0_147_675)">
<path d="M170 85C170 38.0558 131.944 0 85 0C38.0558 0 0 38.0558 0 85C0 131.944 38.0558 170 85 170C131.944 170 170 131.944 170 85Z" fill="#FFD600"/>
<path d="M84.9999 234.537C120.643 234.537 149.537 205.643 149.537 170C149.537 134.357 120.643 105.463 84.9999 105.463C49.3571 105.463 20.4629 134.357 20.4629 170C20.4629 205.643 49.3571 234.537 84.9999 234.537Z" fill="#5A5A5A"/>
<path d="M84.2129 99.1667C102.034 99.1667 116.481 84.7196 116.481 66.8982C116.481 49.0767 102.034 34.6296 84.2129 34.6296C66.3914 34.6296 51.9443 49.0767 51.9443 66.8982C51.9443 84.7196 66.3914 99.1667 84.2129 99.1667Z" fill="#5A5A5A"/>
</g>
</svg>
